<?xml version="1.0" standalone="no"?>
<!DOCTYPE svg PUBLIC "-//W3C//DTD SVG 20010904//EN"
 "http://www.w3.org/TR/2001/REC-SVG-20010904/DTD/svg10.dtd">
<svg version="1.0" xmlns="http://www.w3.org/2000/svg"
 width="300.000000pt" height="102.000000pt" viewBox="0 0 300.000000 102.000000"
 preserveAspectRatio="xMidYMid meet">
<metadata>
Created by potrace 1.10, written by Peter Selinger 2001-2011
</metadata>
<g transform="translate(0.000000,102.000000) scale(0.100000,-0.100000)"
fill="#000000" stroke="none">
<path d="M1593 906 c-69 -15 -96 -42 -98 -100 -1 -26 1 -46 6 -46 4 0 9 24 11
53 3 50 4 52 38 63 19 6 59 14 88 16 50 5 56 3 88 -27 38 -37 44 -33 11 6 -24
29 -58 50 -79 48 -7 -1 -37 -6 -65 -13z"/>
<path d="M445 890 l-50 -19 45 7 c25 4 66 7 92 7 42 0 45 1 25 12 -30 16 -53
15 -112 -7z"/>
<path d="M821 895 c-40 -10 -32 -11 75 -11 131 0 186 -11 236 -50 26 -21 25
-19 -5 9 -30 27 -52 37 -100 46 -95 16 -158 18 -206 6z"/>
<path d="M1290 895 c-25 -14 -24 -14 11 -8 42 6 91 -15 113 -50 8 -12 18 -41
22 -65 4 -25 10 -39 14 -32 4 7 5 21 3 31 -3 11 0 26 7 34 9 11 8 20 -10 44
-11 17 -31 37 -43 46 -27 19 -84 19 -117 0z"/>
<path d="M2451 891 c41 -27 352 -42 419 -21 30 10 -17 13 -225 14 -77 1 -156
5 -175 9 -25 6 -30 5 -19 -2z"/>
<path d="M1313 873 c-7 -2 -13 -15 -13 -28 0 -17 9 -27 33 -36 l32 -13 -51 -4
c-43 -2 -53 -7 -63 -28 -16 -35 -14 -47 10 -72 11 -12 18 -26 15 -31 -3 -5 5
-8 19 -8 24 0 24 0 9 29 -9 18 -21 28 -29 24 -18 -6 -29 25 -13 36 20 12 28
10 22 -7 -4 -9 0 -15 9 -15 18 0 29 37 13 44 -6 3 -4 5 4 4 8 -1 24 3 34 7 14
6 23 3 32 -10 19 -26 17 -35 -7 -35 -32 0 -62 -19 -51 -33 6 -7 12 -21 14 -32
3 -17 8 -14 31 20 22 33 27 36 27 18 0 -12 -4 -25 -10 -28 -5 -3 -10 -15 -10
-26 0 -10 -4 -19 -10 -19 -5 0 -10 -10 -10 -23 0 -17 6 -23 25 -25 23 -2 25 2
25 41 1 23 7 67 14 99 14 56 14 56 -15 87 -15 17 -40 36 -56 42 -22 8 -24 12
-13 19 16 10 4 12 -17 3z"/>
<path d="M275 844 c-49 -15 -81 -20 -83 -14 -2 6 -17 -4 -33 -21 -35 -37 -37
-44 -6 -25 12 8 60 26 107 41 140 44 138 43 115 44 -11 0 -56 -11 -100 -25z"/>
<path d="M810 865 c-8 -2 -32 -6 -52 -10 -26 -4 -38 -11 -38 -22 0 -14 2 -14
20 2 27 25 70 13 70 -19 0 -28 -24 -51 -45 -42 -8 3 -15 15 -15 28 0 17 -3 19
-12 10 -9 -9 -7 -16 7 -32 10 -11 23 -20 30 -20 19 0 45 34 45 58 0 13 6 22
15 22 8 0 15 7 15 15 0 14 -8 16 -40 10z"/>
<path d="M1895 850 c-10 -11 -28 -20 -41 -20 -24 0 -57 -29 -76 -65 -6 -11 7
-3 29 18 22 20 42 35 45 31 4 -3 22 6 41 20 35 27 57 33 57 16 0 -5 7 -7 15
-4 25 10 17 20 -18 22 -23 2 -39 -4 -52 -18z"/>
<path d="M2046 851 c18 -11 33 -23 35 -28 2 -5 20 -20 39 -33 20 -14 29 -17
22 -8 -8 10 -10 23 -6 29 4 8 3 9 -4 5 -6 -4 -30 7 -53 24 -23 16 -47 30 -53
30 -6 0 3 -9 20 -19z"/>
<path d="M417 853 c-40 -11 -62 -29 -65 -55 -3 -22 1 -28 16 -28 23 0 37 -29
22 -44 -7 -7 -10 -5 -10 6 0 9 -14 21 -31 27 -40 14 -38 14 -36 -8 1 -15 5
-17 18 -10 25 13 26 12 32 -21 8 -40 34 -39 42 2 6 27 3 35 -21 55 -23 18 -26
25 -16 35 6 6 17 13 24 15 72 16 70 17 64 -3 -4 -13 1 -23 15 -32 19 -12 20
-11 17 20 -3 29 0 32 22 33 23 0 25 -3 22 -37 -2 -24 1 -38 8 -38 7 0 10 16 8
43 l-3 42 -55 1 c-30 1 -63 0 -73 -3z"/>
<path d="M883 854 c-26 -12 -12 -22 16 -11 15 5 36 7 46 3 17 -6 17 -7 -1 -20
-17 -13 -17 -14 9 -9 15 3 25 8 23 12 -3 4 8 8 24 9 22 2 29 -3 34 -23 6 -24
26 -36 26 -15 0 6 -5 10 -11 10 -8 0 -8 4 0 14 9 11 9 16 0 22 -15 9 -149 16
-166 8z"/>
<path d="M1269 855 c-1 -3 -2 -8 -3 -12 -3 -15 -17 -33 -27 -33 -6 0 -7 5 -3
12 4 7 3 8 -4 4 -6 -4 -8 -14 -5 -23 4 -11 2 -14 -5 -9 -12 7 -25 -47 -18 -79
3 -11 5 -28 5 -38 1 -10 5 -16 10 -12 6 3 15 -3 20 -14 15 -28 14 -34 -6 -27
-15 6 -14 3 3 -14 27 -27 104 -40 104 -17 0 33 -12 47 -35 41 -19 -5 -29 2
-54 37 -17 23 -31 54 -31 69 0 27 36 70 58 70 7 0 12 11 12 25 0 21 -17 37
-21 20z"/>
<path d="M1561 846 c-14 -7 -26 -24 -28 -37 l-4 -23 21 22 c24 25 25 26 52 11
15 -8 18 -17 13 -37 -6 -26 -6 -26 9 -7 14 20 15 20 25 -5 5 -14 10 -18 10
-10 1 8 -6 28 -14 44 -13 24 -13 31 -3 38 25 15 37 8 41 -24 l5 -33 -2 35 c-1
35 -1 35 -51 37 -28 2 -61 -3 -74 -11z"/>
<path d="M1706 799 c4 -43 1 -59 -11 -69 -8 -7 -18 -10 -22 -7 -3 4 -12 2 -19
-4 -17 -14 -44 -5 -44 15 0 9 -7 12 -20 9 -14 -4 -27 2 -40 17 -11 13 -20 17
-20 10 0 -7 7 -18 17 -25 17 -12 9 -40 -8 -29 -6 3 -9 -11 -8 -38 1 -23 0 -50
-2 -58 -3 -12 7 -15 51 -15 l55 0 3 -33 c3 -28 7 -33 23 -29 12 3 25 -3 35
-16 15 -21 15 -21 12 13 -2 28 -8 36 -25 38 -29 4 -29 18 -1 33 13 7 28 17 34
24 13 12 7 62 -7 71 -5 3 -9 10 -9 15 0 6 5 7 10 4 12 -8 12 35 0 90 -8 36 -9
34 -4 -16z m-86 -113 c0 -13 6 -27 13 -30 15 -6 -19 -36 -42 -36 -18 0 -51 29
-51 46 0 21 30 44 56 44 19 0 24 -5 24 -24z m75 4 c7 -22 -2 -60 -14 -60 -10
0 -31 45 -31 65 0 22 38 18 45 -5z"/>
<path d="M2476 833 c-10 -26 -7 -38 5 -26 8 8 20 8 35 3 14 -6 26 -5 29 1 4 5
11 7 16 3 6 -3 27 -7 47 -9 23 -1 37 -7 38 -16 2 -28 4 -30 18 -17 9 9 11 17
4 25 -6 8 -3 13 11 18 23 7 54 -7 73 -33 18 -24 41 -27 36 -5 -2 10 -9 17 -15
16 -17 -4 -23 25 -7 31 9 4 30 -8 52 -30 l37 -36 3 37 c2 20 2 39 0 41 -2 2
-36 6 -76 10 -54 5 -77 3 -94 -8 -15 -10 -34 -12 -55 -7 -20 4 -33 2 -33 -3 0
-6 -8 -7 -17 -3 -10 3 -37 10 -60 14 -33 6 -43 5 -47 -6z"/>
<path d="M2295 830 c-18 -7 -18 -9 8 -19 16 -6 32 -11 37 -11 5 0 25 -15 44
-34 20 -18 36 -29 36 -25 0 15 -35 45 -68 60 -17 7 -33 19 -34 25 -2 7 -11 8
-23 4z"/>
<path d="M1100 814 c0 -23 26 -51 37 -40 4 4 3 10 -3 14 -6 4 -16 16 -22 27
-11 20 -11 20 -12 -1z"/>
<path d="M1958 771 c-2 -38 1 -63 10 -70 17 -16 15 -50 -3 -57 -8 -4 -15 -11
-15 -17 0 -5 9 -2 19 7 12 11 25 15 33 11 10 -6 11 -5 1 6 -20 21 -16 59 6 59
11 0 22 -6 24 -12 3 -7 6 -3 6 10 1 26 18 30 24 5 2 -10 3 -6 1 9 -2 17 2 31
13 36 19 11 9 32 -17 32 -19 0 -30 -19 -30 -51 0 -10 -7 -19 -15 -19 -10 0
-16 16 -21 49 -10 73 -31 74 -36 2z"/>
<path d="M300 810 c-44 -8 -126 -44 -146 -65 -14 -13 -14 -15 1 -15 13 0 16
-7 13 -30 -4 -25 -1 -30 15 -30 19 0 20 -10 1 -72 -7 -24 9 -23 31 2 12 13 14
20 5 20 -8 0 -11 10 -8 32 3 20 0 37 -8 43 -17 13 -30 65 -16 65 6 0 14 -4 17
-10 4 -6 16 -4 31 6 14 10 24 12 24 5 0 -5 7 -8 15 -5 12 5 13 9 4 20 -16 20
-5 28 19 15 15 -8 23 -7 32 4 17 20 12 23 -30 15z"/>
<path d="M910 783 c-14 -9 -28 -22 -32 -29 -9 -14 -48 -7 -48 8 0 6 -6 5 -15
-2 -14 -12 -31 -11 -99 6 -43 10 -24 -13 22 -26 46 -14 323 -24 339 -13 7 5
10 19 6 32 -6 22 -6 22 -24 -6 -17 -26 -19 -26 -19 -6 0 30 -10 54 -21 47 -5
-3 -9 -14 -9 -26 0 -16 -3 -18 -14 -9 -10 8 -16 9 -21 1 -11 -18 -26 -11 -23
12 4 28 -11 32 -42 11z m30 -17 c0 -17 -27 -29 -35 -16 -4 6 -3 15 0 20 9 15
35 12 35 -4z"/>
<path d="M1874 754 c3 -26 11 -53 16 -60 8 -8 8 -14 0 -19 -6 -4 -3 -13 11
-23 19 -16 20 -20 6 -60 l-15 -42 46 0 c46 0 71 18 72 50 0 10 -5 8 -15 -7
-31 -44 -83 -35 -70 13 13 46 8 114 -9 133 -9 10 -13 21 -10 24 8 8 -15 37
-29 37 -6 0 -7 -18 -3 -46z m46 -68 c-1 -19 -2 -19 -15 4 -20 35 -19 62 0 36
8 -11 15 -29 15 -40z"/>
<path d="M2260 785 c-7 -8 -19 -15 -26 -15 -21 0 -20 -158 1 -166 8 -4 15 -12
15 -19 0 -7 10 -15 23 -19 66 -18 109 5 122 64 7 33 6 34 -8 15 -12 -16 -18
-17 -28 -8 -10 10 -10 21 1 53 7 22 11 43 8 45 -3 3 -11 -14 -19 -38 -9 -31
-20 -48 -38 -55 l-26 -12 28 5 c15 3 27 1 27 -5 0 -5 7 -10 15 -10 8 0 15 -6
15 -13 0 -24 -13 -28 -32 -10 -17 15 -19 15 -32 -3 -8 -10 -18 -15 -22 -11 -5
4 -2 12 6 17 13 8 13 10 -1 10 -11 0 -19 12 -23 34 -4 19 -13 37 -21 40 -8 3
-15 15 -15 26 0 56 49 82 102 55 17 -8 33 -13 36 -11 5 5 -72 46 -86 46 -5 0
-15 -7 -22 -15z m0 -157 c0 -30 -25 -15 -28 17 -3 25 -2 27 12 16 9 -8 16 -22
16 -33z"/>
<path d="M2496 762 c1 -73 -4 -69 91 -71 109 -3 176 -17 199 -42 22 -24 34
-24 34 1 0 11 5 20 11 20 21 0 35 25 29 50 l-6 25 -8 -22 c-4 -13 -11 -23 -16
-23 -5 0 -12 -9 -15 -20 -8 -26 -26 -25 -56 3 -14 12 -32 21 -41 19 -9 -2 -27
2 -40 9 -13 7 -27 13 -33 14 -28 1 -53 26 -49 47 4 21 4 22 -5 3 -10 -19 -10
-19 -17 3 -4 15 -9 20 -14 12 -12 -20 13 -60 38 -60 13 0 20 -4 17 -10 -11
-18 -53 -11 -60 11 -7 20 -32 21 -28 1 2 -6 -4 -9 -12 -6 -17 7 -19 26 -5 40
8 8 7 14 -2 22 -10 8 -13 3 -12 -26z"/>
<path d="M2711 782 c27 -22 21 -48 -13 -55 -16 -4 -14 -5 7 -4 23 2 31 7 33
25 4 26 -13 52 -35 52 -11 0 -8 -6 8 -18z"/>
<path d="M559 744 c-7 -9 -22 -14 -36 -11 -13 2 -28 -2 -34 -9 -14 -17 -46
-18 -52 -1 -3 7 -6 5 -6 -5 -1 -10 -7 -19 -13 -19 -15 -2 38 -16 64 -18 12 -1
15 5 11 20 -5 17 -2 20 13 17 11 -2 18 -11 17 -22 -1 -17 0 -17 15 1 19 21 44
63 38 63 -2 0 -9 -7 -17 -16z"/>
<path d="M2800 747 c0 -19 10 -27 26 -20 21 8 17 33 -6 33 -11 0 -20 -6 -20
-13z"/>
<path d="M580 710 c-24 -46 -27 -69 -3 -26 l16 30 19 -24 c11 -14 18 -34 15
-47 l-4 -22 25 19 c33 27 80 25 110 -2 l25 -23 -12 22 c-14 27 -41 43 -73 43
-13 0 -29 5 -36 12 -7 7 -12 8 -12 2 0 -5 5 -15 12 -22 7 -7 8 -12 2 -12 -13
0 -49 39 -57 63 -8 20 22 24 41 5 9 -9 12 -9 12 1 0 7 5 9 10 6 6 -3 10 -2 10
3 0 5 -18 9 -40 10 -37 2 -41 -1 -60 -38z"/>
<path d="M257 733 c-13 -12 -7 -20 15 -18 27 2 37 25 11 25 -11 0 -23 -3 -26
-7z"/>
<path d="M1085 718 c-62 -16 -72 -20 -58 -25 7 -2 9 -11 6 -19 -3 -9 1 -14 11
-14 14 0 15 4 6 20 -10 18 -8 20 20 20 34 0 37 -9 14 -48 l-16 -27 21 24 c12
13 21 31 21 40 0 9 5 22 12 29 7 7 10 11 8 11 -3 -1 -23 -6 -45 -11z"/>
<path d="M300 697 c-14 -12 -34 -33 -45 -47 -15 -19 -11 -17 18 8 21 18 49 32
64 32 21 0 24 2 13 15 -16 19 -20 19 -50 -8z"/>
<path d="M1810 703 c-1 -13 -3 -29 -4 -35 -1 -7 2 -15 6 -18 4 -3 9 -16 11
-27 3 -24 34 -63 50 -63 5 0 6 14 3 33 -4 17 -8 39 -9 48 -1 12 -8 16 -24 13
-19 -4 -22 1 -26 33 -2 23 -5 29 -7 16z"/>
<path d="M2454 694 c-10 -41 -15 -48 -25 -33 -5 8 -9 10 -9 4 0 -5 5 -17 10
-25 8 -13 10 -13 10 -1 0 11 4 9 14 -5 8 -10 18 -15 23 -11 4 5 0 13 -9 18
-14 8 -15 14 -6 40 6 16 8 33 5 36 -3 3 -9 -8 -13 -23z"/>
<path d="M900 702 c36 -11 8 -25 -33 -16 -44 10 -77 11 -77 3 0 -10 115 -22
165 -17 35 3 40 1 39 -18 0 -13 5 -20 11 -18 6 3 10 18 7 34 -3 25 -9 30 -31
30 -14 0 -44 2 -66 5 -28 3 -33 2 -15 -3z"/>
<path d="M2587 672 c-34 -9 -57 -27 -57 -46 0 -15 3 -17 12 -8 7 7 20 12 31
12 10 0 16 4 13 9 -9 13 20 21 32 9 8 -8 16 -8 24 -1 7 5 23 10 34 11 16 0 21
-4 17 -18 -3 -10 0 -21 6 -24 6 -4 11 1 12 11 0 16 1 16 9 -2 7 -17 9 -17 9
-2 1 9 7 17 13 17 7 0 3 6 -7 14 -19 13 -120 25 -148 18z"/>
<path d="M1771 655 c-1 -15 -3 -17 -10 -6 -19 30 -31 -125 -16 -196 6 -26 4
-33 -8 -33 -19 0 -41 26 -32 40 3 5 -1 13 -9 16 -9 3 -16 12 -16 20 0 7 -11
16 -25 20 -13 3 -27 15 -30 25 -4 10 -13 19 -21 19 -8 0 -14 7 -14 16 0 13 -3
14 -14 5 -10 -8 -21 -8 -40 -1 -26 9 -26 9 -13 -11 8 -11 12 -30 9 -41 -3 -14
-1 -19 6 -14 7 4 12 14 12 22 0 8 5 14 11 14 6 0 9 -6 6 -14 -4 -10 2 -16 16
-19 22 -3 22 -4 -3 -15 -23 -10 -24 -11 -4 -11 25 -1 38 21 21 38 -6 6 -8 13
-5 17 10 10 101 -83 94 -95 -9 -14 -83 -15 -91 -1 -4 6 -11 8 -16 5 -5 -4 -9
2 -9 12 0 15 -2 16 -10 3 -6 -10 -10 -11 -10 -2 0 6 -4 12 -10 12 -5 0 -10 -7
-10 -15 0 -20 -16 -19 -24 2 -4 9 -1 20 6 25 9 5 7 8 -7 8 -18 1 -19 1 -2 11
9 5 17 15 17 21 0 6 -9 3 -20 -7 -12 -10 -19 -24 -16 -29 17 -43 17 -43 -19
-49 -49 -8 -65 -23 -64 -61 l1 -31 7 30 c9 43 55 51 211 35 146 -15 166 -21
181 -54 8 -16 23 -26 47 -31 67 -13 112 -36 113 -59 0 -11 3 -16 5 -9 6 14 34
6 34 -11 0 -6 -9 -17 -20 -24 -14 -8 -20 -23 -20 -49 0 -39 11 -39 15 -1 1 13
3 26 4 31 0 4 13 7 29 6 15 0 21 -3 14 -6 -6 -2 -9 -9 -6 -15 3 -5 -7 -23 -22
-40 -25 -26 -26 -29 -6 -19 12 6 29 23 38 36 9 14 22 21 30 18 8 -3 14 -1 14
5 0 6 -5 12 -10 14 -6 2 -12 13 -13 26 0 12 -9 25 -19 28 -41 13 -64 72 -39
100 5 5 12 20 16 34 6 22 3 21 -29 -12 -19 -21 -39 -38 -44 -38 -17 0 -44 39
-39 55 8 19 43 20 50 0 9 -21 -10 -28 -22 -8 -9 16 -10 16 -11 1 0 -25 20 -33
38 -14 21 21 5 51 -28 51 -32 0 -49 -29 -32 -56 17 -27 5 -40 -14 -15 -8 11
-14 14 -14 8 0 -26 -38 -10 -70 29 -24 30 -29 43 -20 49 10 6 9 9 -1 12 -12 5
-12 9 0 29 12 21 12 24 -8 37 -24 16 -27 46 -7 80 l12 23 27 -39 26 -40 -22
-10 c-21 -10 -21 -11 6 -11 16 -1 26 -5 23 -10 -3 -5 2 -12 11 -16 10 -3 19
-1 21 4 2 6 8 9 13 6 5 -4 6 0 3 8 -3 8 -16 20 -29 27 -30 16 -50 46 -63 91
-7 21 -11 26 -11 14z"/>
<path d="M320 649 c0 -15 22 -35 48 -43 25 -8 29 -38 7 -56 -9 -8 -15 -8 -15
-2 0 6 -12 9 -27 6 -27 -5 -27 -5 -9 15 18 19 15 41 -5 41 -6 0 -8 -9 -4 -19
8 -25 -11 -36 -32 -19 -15 12 -15 11 -4 -9 24 -45 73 -55 114 -23 33 27 39 25
57 -13 8 -17 24 -33 35 -35 46 -7 48 -10 25 -48 -20 -32 -21 -38 -9 -62 7 -15
15 -30 17 -34 2 -5 -5 -8 -16 -8 -11 0 -25 -7 -32 -15 -10 -12 -10 -15 3 -15
9 0 19 5 22 10 10 16 23 12 27 -7 3 -10 6 3 9 30 3 33 1 46 -7 43 -7 -3 -11 5
-10 20 1 19 5 23 21 18 15 -4 16 -3 6 4 -11 8 -12 18 -3 53 9 35 8 41 -2 27
-16 -21 -35 -10 -105 60 -35 36 -50 57 -43 64 7 7 17 6 30 -1 26 -14 62 -10
81 7 7 7 20 11 27 8 8 -3 14 -1 14 4 0 16 -66 12 -80 -5 -9 -11 -17 -12 -32
-4 -10 6 -32 8 -48 4 -16 -3 -31 -2 -35 4 -8 14 -25 14 -25 0z"/>
<path d="M2850 642 c0 -10 -4 -22 -10 -28 -6 -6 -6 -15 0 -24 8 -12 10 -11 10
7 0 12 7 26 16 31 9 5 14 14 10 21 -11 17 -26 13 -26 -7z"/>
<path d="M680 628 c-28 -30 -25 -39 10 -31 24 4 30 2 30 -11 0 -10 -4 -15 -9
-11 -5 3 -12 1 -16 -5 -4 -6 6 -10 24 -10 26 0 31 4 31 24 0 13 -7 26 -15 30
-8 3 -15 12 -15 21 0 21 -16 19 -40 -7z"/>
<path d="M2627 611 c7 -27 -34 -34 -58 -10 -10 10 -19 15 -19 10 0 -6 5 -13
11 -16 7 -5 5 -12 -5 -23 -8 -10 -30 -47 -49 -84 -33 -63 -34 -66 -11 -50 13
9 24 26 24 37 0 32 29 66 74 86 52 24 83 24 121 1 37 -23 92 -35 100 -21 4 5
1 8 -7 7 -7 -2 -13 6 -13 17 -1 37 -16 65 -36 65 -11 0 -17 -4 -14 -10 3 -5
12 -10 20 -10 17 0 28 -31 16 -43 -11 -11 -50 4 -83 31 -14 12 -21 12 -33 2
-12 -10 -15 -10 -15 3 0 8 -6 17 -14 20 -9 4 -12 0 -9 -12z"/>
<path d="M980 617 c0 -5 5 -17 10 -28 9 -16 15 -17 31 -9 11 6 25 8 31 4 6 -4
8 -3 5 3 -4 6 -18 11 -33 11 -14 0 -30 6 -35 13 -5 8 -9 10 -9 6z"/>
<path d="M1070 586 c0 -37 19 -51 22 -16 0 11 1 25 2 32 1 6 -5 13 -11 16 -9
2 -13 -8 -13 -32z"/>
<path d="M2191 606 c0 -11 11 -33 26 -48 25 -26 26 -29 10 -45 -14 -14 -20
-15 -41 -3 -32 16 -44 45 -17 37 14 -3 17 0 13 15 -4 18 -6 18 -23 2 -11 -9
-19 -23 -19 -31 0 -7 -5 -13 -11 -13 -6 0 -9 9 -6 20 3 11 1 20 -4 20 -5 0 -9
-9 -9 -19 0 -11 -8 -22 -18 -26 -19 -5 -89 -85 -76 -85 3 0 20 15 38 34 31 35
86 58 86 37 0 -6 -7 -11 -15 -11 -8 0 -15 -5 -15 -11 0 -6 -7 -9 -15 -6 -8 4
-17 2 -20 -2 -2 -5 9 -11 25 -15 29 -5 30 -7 26 -51 -3 -27 -1 -45 6 -45 5 0
8 -6 5 -14 -3 -7 0 -19 6 -25 9 -10 6 -11 -15 -6 -18 5 -28 3 -28 -4 0 -6 6
-10 13 -8 6 1 11 -6 9 -15 -4 -24 42 -34 94 -20 35 9 48 9 74 -4 41 -21 75
-11 94 26 8 17 11 30 6 30 -10 0 -31 -26 -25 -31 2 -3 -12 -6 -32 -7 -29 -2
-34 0 -29 13 5 13 1 15 -16 9 -19 -6 -21 -4 -12 7 5 8 9 24 8 37 -1 13 6 27
17 32 22 12 30 1 24 -32 -4 -19 0 -27 14 -31 14 -3 18 -1 14 11 -4 8 0 20 8
26 21 16 19 71 -3 85 -10 6 -18 7 -18 2 0 -6 5 -13 10 -16 15 -9 12 -45 -4
-45 -8 0 -16 6 -19 13 -3 9 -9 9 -26 -1 -29 -17 -59 -6 -67 24 -3 13 -10 24
-15 24 -5 0 -6 7 -2 16 5 15 -1 16 -52 12 -50 -4 -56 -3 -40 9 24 17 63 17 97
-1 30 -16 50 -4 21 12 -14 8 -13 12 13 25 35 18 68 7 46 -15 -9 -9 -12 -9 -12
0 0 7 -4 12 -10 12 -5 0 -10 -7 -10 -16 0 -9 8 -14 18 -13 41 4 62 -3 93 -28
28 -24 31 -25 20 -6 -6 12 -25 30 -41 40 -34 20 -37 28 -13 37 10 4 27 -3 47
-21 17 -15 25 -21 18 -12 -6 9 -9 19 -5 22 3 4 -1 7 -10 7 -9 0 -17 5 -17 11
0 6 9 9 19 6 14 -3 20 2 24 19 6 34 -2 37 -34 10 -15 -13 -38 -22 -51 -21 -13
1 -39 3 -59 4 -39 1 -74 25 -82 56 -5 19 -5 19 -6 1z m-27 -162 c9 -3 16 -12
16 -19 0 -19 -34 -11 -38 8 -4 19 -1 20 22 11z m52 -48 c7 -8 19 -16 26 -18
20 -7 10 -61 -14 -80 -16 -12 -27 -14 -41 -7 -24 13 -41 58 -27 74 5 6 7 15 3
19 -7 7 14 26 30 26 5 0 15 -6 23 -14z"/>
<path d="M228 580 c-17 -20 -22 -30 -12 -30 8 0 14 -4 14 -9 0 -17 -44 -41
-74 -41 -22 0 -27 -3 -19 -11 16 -16 80 7 98 35 12 17 28 86 21 86 -1 0 -13
-13 -28 -30z"/>
<path d="M620 553 c-9 -32 -14 -82 -12 -110 4 -47 6 -52 22 -43 14 7 20 6 24
-7 7 -17 -9 -33 -34 -33 -12 0 -11 -3 2 -17 16 -15 18 -15 37 8 l19 24 7 -28
c6 -22 3 -34 -13 -50 l-21 -21 -11 25 c-9 21 -10 19 -6 -16 7 -51 36 -89 70
-93 54 -7 97 67 56 95 -11 8 -20 22 -20 31 -1 16 -2 16 -14 0 -17 -23 -26 -13
-26 28 0 19 -9 50 -20 70 -23 39 -15 64 20 64 13 0 19 -11 24 -45 4 -25 5 -49
2 -54 -3 -5 1 -14 9 -21 12 -10 15 -9 15 4 0 9 7 16 15 16 8 0 15 -4 15 -9 0
-5 11 0 24 12 22 19 23 23 8 28 -21 8 -44 0 -36 -12 3 -5 1 -9 -5 -9 -11 0
-25 19 -26 35 -1 16 19 25 27 12 5 -7 8 -3 8 12 0 17 -4 22 -15 17 -18 -6 -52
24 -57 50 -3 17 -5 16 -25 -5 -12 -13 -26 -20 -31 -17 -6 4 -8 -10 -4 -36 4
-36 3 -40 -9 -29 -22 21 -20 79 3 87 10 3 18 9 18 14 0 5 -8 6 -17 3 -16 -6
-17 -5 -3 12 8 11 10 16 3 11 -10 -5 -11 1 -7 24 11 51 -1 33 -16 -27z m120
-287 c0 -13 6 -26 12 -28 8 -3 2 -12 -14 -22 -21 -14 -31 -15 -47 -6 -12 6
-21 16 -21 22 0 9 3 9 12 0 14 -14 44 -16 52 -3 4 5 -3 7 -15 4 -15 -4 -22 0
-26 16 -4 17 -8 19 -19 10 -8 -6 -14 -7 -14 -2 0 18 24 33 52 33 23 0 28 -4
28 -24z"/>
<path d="M1128 600 c12 -5 22 -14 22 -19 0 -16 -21 -24 -33 -12 -8 8 -7 11 3
11 7 0 11 3 7 6 -10 11 -26 -6 -20 -21 7 -20 42 -19 49 0 8 19 -13 45 -35 44
-11 0 -9 -3 7 -9z"/>
<path d="M1219 577 c16 -20 15 -22 -16 -31 -15 -5 -23 -3 -23 5 0 8 -6 6 -18
-4 -21 -19 -48 -22 -57 -7 -3 5 -12 7 -19 4 -8 -3 -17 -1 -21 5 -4 8 -12 8
-26 1 -11 -6 -23 -9 -27 -6 -13 8 -82 -95 -81 -123 l1 -26 8 27 c4 15 19 41
32 57 20 26 30 30 74 30 39 1 55 -4 69 -19 18 -19 18 -19 31 -1 34 49 121 51
168 4 28 -28 35 -21 11 11 -20 27 -19 36 5 36 11 0 20 7 20 15 0 18 -2 18 -35
3 -22 -10 -32 -8 -68 12 -31 18 -38 19 -28 7z"/>
<path d="M493 545 c-3 -9 -3 -18 0 -22 10 -10 37 6 37 22 0 20 -29 20 -37 0z"/>
<path d="M2582 537 c-27 -19 -32 -27 -29 -54 1 -18 -2 -34 -8 -36 -5 -2 -2 -3
8 -2 10 2 17 -3 17 -12 0 -11 -7 -14 -26 -9 -32 8 -54 -8 -54 -40 0 -31 45
-54 105 -54 44 0 45 1 45 31 0 26 2 29 14 20 8 -7 14 -20 14 -29 0 -9 3 -25 7
-34 5 -12 2 -20 -9 -24 -22 -8 -20 -27 5 -50 22 -19 22 -19 11 3 -10 18 -7 24
23 48 28 23 32 31 24 46 -12 23 -29 25 -29 3 0 -23 -17 -8 -22 21 -5 22 -2 25
24 25 21 0 32 7 40 25 6 13 19 27 29 30 26 9 33 35 9 35 -15 0 -20 7 -20 25 0
14 -4 25 -9 25 -4 0 -6 -12 -3 -26 4 -21 1 -25 -14 -22 -12 2 -19 12 -20 28 0
14 -3 31 -8 38 -12 19 -87 13 -124 -11z m96 -13 c17 -12 22 -25 22 -58 0 -48
-10 -61 -55 -70 -26 -5 -33 -1 -57 33 -26 38 -26 39 -8 69 27 44 60 53 98 26z
m76 -67 c-5 -13 -44 -41 -44 -31 0 3 5 14 10 25 12 21 42 27 34 6z m-189 -58
c4 -6 13 -8 21 -5 8 3 14 1 14 -3 0 -10 -24 -21 -43 -21 -21 0 -40 17 -33 29
9 14 33 14 41 0z"/>
<path d="M2607 513 c-14 -14 -6 -24 15 -18 16 6 20 4 15 -8 -3 -8 1 -24 9 -35
8 -11 10 -23 5 -26 -5 -3 -11 4 -14 15 -4 15 -11 20 -23 15 -12 -4 -15 -2 -10
9 3 8 1 15 -4 15 -16 0 -11 -26 10 -50 26 -30 73 -21 68 13 -2 12 -8 21 -14
20 -5 -1 -10 7 -11 17 -1 14 3 16 20 12 20 -5 20 -4 8 11 -13 17 -61 23 -74
10z"/>
<path d="M260 514 c0 -8 -4 -12 -10 -9 -5 3 -10 3 -10 -2 0 -9 -48 -33 -66
-33 -7 0 -16 -20 -20 -45 -3 -25 -10 -48 -15 -51 -5 -3 -9 -10 -9 -16 0 -6 9
-3 20 7 12 11 18 25 15 36 -4 10 -2 27 4 36 9 16 11 15 12 -7 1 -14 1 -32 0
-41 -2 -17 47 -55 57 -44 4 3 1 10 -6 14 -7 4 -15 20 -18 35 -3 21 -1 26 8 20
10 -6 11 -5 1 8 -15 17 -8 28 19 28 28 0 44 -57 28 -100 -2 -3 -2 -9 -1 -14 1
-5 -5 -6 -14 -3 -17 7 -19 -1 -5 -23 7 -12 12 -12 22 -2 16 16 53 15 67 -2 7
-8 22 -11 38 -8 21 4 32 -1 49 -24 19 -22 26 -26 36 -16 9 9 17 7 36 -11 l25
-22 -6 25 c-4 14 -7 34 -7 44 0 18 -1 18 -20 1 -19 -17 -20 -17 -31 9 -11 22
-9 29 7 49 25 28 20 68 -9 86 -20 13 -21 13 -7 -3 7 -10 14 -29 14 -42 0 -25
-2 -25 -87 -28 -48 -2 -87 1 -87 6 0 4 8 8 18 8 10 0 13 3 6 8 -17 11 -24 52
-9 52 7 0 12 -8 11 -17 -1 -13 7 -18 29 -20 48 -2 51 -3 37 -12 -8 -5 0 -7 22
-7 35 1 45 9 27 20 -8 5 -22 66 -15 66 2 0 14 -4 28 -10 33 -12 33 -5 -1 25
-22 19 -39 24 -79 23 -28 0 -60 5 -72 11 -27 15 -32 14 -32 -5z m42 -26 c3 -7
0 -18 -6 -24 -13 -13 -41 10 -31 26 9 14 32 13 37 -2z m99 5 c0 -5 2 -16 4
-25 4 -22 -5 -23 -31 -3 -16 13 -17 16 -4 25 18 12 30 13 31 3z m-61 -28 c0
-8 9 -15 19 -15 14 0 18 -5 14 -20 -3 -11 -10 -20 -15 -20 -5 0 -12 9 -15 20
-3 11 -9 20 -14 20 -5 0 -9 7 -9 15 0 8 5 15 10 15 6 0 10 -7 10 -15z m66
-152 c-3 -4 -16 -1 -28 4 l-23 11 25 10 c19 7 26 6 28 -5 2 -8 1 -17 -2 -20z"/>
<path d="M867 479 c-16 -12 -36 -19 -47 -16 -15 4 -20 0 -20 -14 0 -30 40 -19
86 23 30 27 40 7 17 -32 -9 -16 -20 -30 -23 -30 -3 0 -21 -14 -40 -31 l-35
-31 35 20 c19 11 48 38 64 61 24 33 27 43 16 56 -16 19 -19 19 -53 -6z"/>
<path d="M1240 486 c0 -16 -2 -16 -15 -6 -13 11 -20 10 -42 -7 -36 -26 -42
-46 -11 -35 31 11 58 4 51 -14 -3 -8 0 -14 5 -14 6 0 17 -6 24 -12 23 -22 48
-41 48 -36 0 3 -16 21 -35 41 -19 20 -35 41 -35 47 0 16 32 12 68 -10 17 -11
32 -17 32 -14 0 11 -29 34 -44 34 -8 0 -22 10 -30 22 -14 20 -16 20 -16 4z"/>
<path d="M578 452 c-2 -15 -1 -52 3 -82 6 -52 6 -51 8 28 1 83 -3 105 -11 54z"/>
<path d="M1033 459 c3 -13 0 -41 -8 -62 -13 -38 -13 -38 6 -21 10 9 19 25 19
34 0 19 19 40 37 40 19 0 33 -42 20 -58 -8 -10 -7 -16 4 -23 24 -15 29 -10 29
24 0 38 -31 77 -60 77 -10 0 -26 3 -36 7 -14 5 -16 2 -11 -18z"/>
<path d="M2305 459 c4 -6 1 -10 -6 -8 -27 3 -40 -1 -34 -11 3 -5 1 -10 -4 -10
-6 0 -11 -4 -11 -9 0 -5 18 0 40 11 45 23 46 24 24 32 -9 3 -12 2 -9 -5z"/>
<path d="M979 439 c-31 -58 12 -148 95 -197 62 -38 101 -48 120 -33 8 7 16 8
18 4 1 -4 17 -15 33 -23 31 -16 45 -54 23 -62 -7 -3 -22 3 -32 13 -19 19 -19
19 0 20 15 0 14 2 -6 10 -14 6 -38 8 -54 5 -20 -4 -35 -1 -48 10 -16 15 -18
15 -18 1 0 -16 9 -20 67 -32 17 -3 34 -13 37 -21 3 -9 10 -13 15 -9 5 3 12 1
16 -5 4 -7 13 -6 27 1 18 9 20 17 14 56 -5 38 -2 49 21 80 l27 35 13 -33 c8
-21 11 -24 9 -10 -6 28 9 51 31 51 12 0 14 -8 9 -35 -7 -37 8 -50 17 -14 4 14
10 18 18 13 9 -5 10 -2 6 10 -4 10 -7 21 -7 26 0 14 -50 21 -70 10 -15 -8 -20
-8 -20 2 0 7 -8 1 -17 -12 -9 -14 -20 -27 -23 -30 -4 -3 -9 -13 -13 -22 -3
-10 -14 -18 -23 -18 -10 0 -14 -5 -10 -16 3 -8 2 -12 -4 -9 -6 3 -10 13 -10
21 0 18 -10 18 -38 -2 -12 -8 -22 -11 -22 -5 0 6 10 16 23 22 12 7 24 15 27
18 3 4 18 11 33 16 33 12 77 72 52 72 -8 0 -15 -6 -15 -13 0 -8 -11 -21 -24
-29 -19 -13 -29 -14 -45 -6 -16 9 -20 8 -23 -10 -2 -11 -17 -29 -34 -40 -30
-18 -33 -19 -49 -3 -16 16 -16 18 6 35 13 10 21 20 18 23 -3 3 -16 -5 -28 -18
-20 -21 -27 -23 -52 -14 -16 5 -26 14 -23 19 3 5 1 9 -5 9 -5 0 -13 9 -16 21
-4 11 -9 18 -12 15 -13 -13 -33 18 -33 50 0 23 6 38 20 46 24 15 26 25 4 25
-8 0 -19 -8 -25 -18z"/>
<path d="M2812 448 c-7 -7 -12 -18 -12 -25 0 -7 -8 -13 -18 -13 -27 0 -55 -37
-43 -58 9 -15 10 -15 11 4 0 29 24 49 37 32 6 -7 12 -19 14 -26 5 -17 49 13
49 34 0 16 -16 19 -25 4 -3 -5 -1 -10 5 -10 6 0 8 -4 5 -10 -9 -15 -25 -12
-32 6 -3 8 4 25 16 38 22 24 15 46 -7 24z"/>
<path d="M2048 434 c-29 -15 -38 -44 -14 -44 7 0 19 -7 27 -16 19 -23 -9 -39
-33 -17 -16 14 -18 13 -23 -10 -9 -33 9 -65 40 -73 33 -8 50 3 33 23 -10 12
-9 17 2 27 18 13 22 46 7 46 -5 0 -2 9 7 19 14 15 15 24 6 40 -13 25 -16 25
-52 5z m2 -120 c0 -16 -9 -18 -29 -5 -7 5 -11 14 -7 19 9 15 36 4 36 -14z"/>
<path d="M1156 405 c4 -8 13 -15 20 -15 8 0 19 -10 24 -22 9 -23 9 -23 9 -1 1
12 7 24 14 26 12 6 -17 11 -42 8 -7 -2 -10 2 -6 8 3 6 -1 11 -9 11 -10 0 -13
-6 -10 -15z"/>
<path d="M2413 399 c0 -13 -3 -32 -7 -41 -5 -11 -4 -18 3 -18 6 0 10 3 10 8
-4 21 3 23 21 7 23 -21 26 -53 6 -61 -14 -5 -18 -104 -4 -104 7 0 10 15 10 40
0 3 -3 15 -7 28 -3 12 -2 22 4 22 5 0 13 -9 16 -20 4 -11 10 -18 15 -15 14 9
50 -18 50 -37 0 -9 -7 -24 -16 -32 -8 -9 -12 -16 -7 -16 15 0 33 23 33 42 0
22 8 23 32 1 10 -9 21 -13 26 -9 4 4 -1 14 -11 21 -24 18 -18 49 11 53 21 3
22 1 17 -50 l-4 -53 15 40 c8 22 12 50 9 63 -3 12 -1 22 5 22 5 0 10 7 10 15
0 19 -9 19 -34 0 -10 -8 -23 -12 -29 -8 -5 3 -25 9 -44 13 -28 7 -32 6 -22 -6
6 -8 18 -14 25 -14 15 0 18 -28 5 -48 -6 -10 -10 -10 -21 2 -7 9 -16 13 -21
10 -5 -3 -9 0 -9 5 0 6 -6 11 -14 11 -19 0 -28 14 -20 34 5 13 9 14 20 5 17
-14 18 -8 2 26 -6 14 -17 25 -25 25 -7 0 -22 14 -32 31 -18 29 -19 29 -18 8z"/>
<path d="M1474 402 c-27 -3 -31 -7 -31 -33 0 -16 2 -29 4 -29 5 0 56 33 63 40
3 3 17 6 33 8 23 2 27 -1 27 -21 0 -37 39 -44 65 -12 12 14 24 25 28 25 14 0
7 -23 -10 -36 -10 -7 -14 -16 -10 -20 4 -5 12 -2 17 6 8 13 10 12 10 -2 0 -10
4 -18 9 -18 14 0 19 23 11 45 -4 11 -4 25 1 31 7 8 -10 12 -58 13 -38 1 -81 3
-98 4 -16 1 -44 1 -61 -1z"/>
<path d="M1721 374 c5 -15 7 -36 4 -48 -5 -20 -5 -20 7 -2 7 11 21 27 30 37
16 17 15 18 -14 28 -17 6 -32 11 -34 11 -2 0 1 -12 7 -26z"/>
<path d="M930 361 c0 -30 -2 -33 -24 -27 -18 4 -33 -1 -55 -20 -17 -14 -34
-23 -39 -20 -5 3 -7 -8 -4 -23 2 -16 -1 -32 -7 -35 -6 -4 -11 -17 -11 -29 1
-18 3 -16 15 11 13 29 16 31 34 20 11 -6 23 -20 28 -30 6 -13 12 -15 23 -8 13
9 13 11 0 21 -11 8 -12 12 -2 16 6 2 12 9 12 15 0 6 -6 6 -15 -2 -19 -16 -37
-9 -41 18 -3 13 5 27 18 37 34 23 51 19 46 -10 -3 -15 1 -30 10 -37 13 -11 15
-10 9 5 -11 29 18 20 57 -18 20 -19 36 -30 36 -25 0 5 -8 15 -18 22 -10 7 -21
21 -25 31 -3 9 -13 17 -21 17 -10 0 -14 12 -14 46 0 25 -3 48 -6 52 -3 3 -6
-9 -6 -27z"/>
<path d="M1070 350 c0 -10 -8 -24 -17 -29 -16 -9 -16 -10 -1 -11 9 0 19 -6 22
-12 5 -10 7 -10 12 -1 3 7 11 10 19 7 7 -3 19 4 25 17 11 19 10 21 -4 16 -10
-4 -16 -1 -16 7 0 8 -7 17 -16 20 -23 9 -24 8 -24 -14z"/>
<path d="M1231 357 c-14 -14 -14 -34 -1 -42 17 -11 50 5 50 25 0 21 -33 33
-49 17z"/>
<path d="M2852 358 c-7 -7 -12 -18 -12 -26 0 -8 -6 -12 -15 -8 -9 3 -15 0 -15
-10 0 -11 4 -12 19 -5 10 6 22 7 26 3 5 -4 5 -1 1 5 -4 7 -2 22 4 33 12 23 10
26 -8 8z"/>
<path d="M1530 343 c0 -13 -2 -15 -8 -5 -13 19 -41 4 -35 -19 4 -14 11 -17 29
-13 23 6 24 4 24 -47 -1 -43 -3 -50 -11 -36 -6 11 -9 30 -6 43 3 16 0 24 -10
24 -10 0 -12 -7 -9 -20 3 -11 9 -29 12 -40 3 -13 1 -20 -9 -20 -8 0 -15 6 -14
13 1 31 -4 44 -17 44 -13 0 -13 -5 0 -36 8 -19 20 -39 26 -43 15 -8 171 -10
216 -2 36 7 38 15 16 59 l-14 30 4 -37 c3 -21 1 -38 -5 -38 -5 0 -9 16 -9 36
0 29 -3 35 -16 30 -13 -5 -15 -2 -11 14 6 23 -14 27 -32 6 -9 -10 -8 -15 2
-19 16 -6 20 -57 6 -57 -5 0 -9 8 -9 19 0 30 -25 45 -41 25 -12 -15 -14 -14
-20 7 -3 13 -11 23 -17 22 -7 -2 -12 2 -12 7 0 6 7 10 16 10 9 0 14 6 11 13
-2 6 -12 12 -23 12 -12 0 -18 6 -16 18 2 9 -2 17 -8 17 -5 0 -10 -8 -10 -17z
m50 -109 c0 -8 -7 -14 -15 -14 -10 0 -15 10 -15 26 0 22 2 25 15 14 8 -7 15
-19 15 -26z"/>
<path d="M155 340 c-18 -7 -17 -8 10 -15 52 -12 55 -14 55 -37 1 -20 2 -21 11
-6 10 19 -3 58 -21 58 -4 0 -14 2 -22 4 -7 3 -22 1 -33 -4z"/>
<path d="M1752 323 c-19 -27 -18 -45 4 -71 1 -2 17 7 34 20 23 16 45 23 80 23
60 0 53 9 -19 24 -30 6 -60 16 -67 22 -9 7 -18 2 -32 -18z"/>
<path d="M1605 301 c3 -21 31 -26 38 -8 4 10 -2 16 -18 19 -17 4 -22 1 -20
-11z"/>
<path d="M2734 297 c-3 -9 -15 -19 -26 -23 -18 -5 -18 -7 -3 -24 9 -9 15 -21
13 -26 -5 -15 43 -84 58 -84 8 0 14 5 14 10 0 6 -6 10 -12 10 -9 0 -8 4 2 10
13 8 12 10 -2 10 -10 0 -18 5 -18 10 0 6 7 10 15 10 8 0 15 7 15 15 0 19 -7
19 -28 -1 -15 -16 -17 -15 -28 12 -10 24 -10 33 3 52 8 13 12 26 9 29 -3 3 -8
-1 -12 -10z"/>
<path d="M284 285 c-4 -8 -12 -15 -19 -15 -9 0 -10 -12 -1 -52 5 -29 12 -45
14 -35 2 9 13 17 25 18 l22 0 -22 11 c-13 6 -23 15 -23 20 0 12 8 10 36 -8
l25 -17 -33 -28 c-17 -16 -27 -29 -20 -29 6 0 13 4 16 9 3 5 19 7 36 5 17 -2
30 1 30 7 0 8 5 7 15 -1 12 -10 15 -10 15 2 0 8 -12 18 -27 24 l-27 9 28 18
c31 21 50 14 21 -7 -17 -12 -17 -13 4 -19 14 -3 21 -1 21 9 0 8 5 14 10 14 13
0 -2 30 -26 55 -15 15 -18 15 -35 -1 -14 -13 -22 -15 -30 -7 -6 6 -18 9 -27 5
-11 -4 -14 -1 -9 11 3 9 2 17 -4 17 -5 0 -12 -7 -15 -15z"/>
<path d="M1867 270 c3 -11 0 -20 -6 -20 -6 0 -11 7 -11 15 0 8 -4 15 -9 15
-17 0 -23 -20 -15 -53 6 -30 7 -31 15 -9 13 34 31 27 27 -10 -2 -18 -7 -31
-12 -30 -10 4 -26 -17 -26 -33 0 -5 4 -4 9 4 5 7 14 10 20 6 9 -5 9 -10 0 -21
-10 -12 -8 -13 12 -6 13 5 26 15 30 23 3 8 14 28 23 46 25 48 1 93 -49 93 -8
0 -11 -7 -8 -20z m53 -38 c0 -10 -7 -27 -15 -38 -14 -18 -14 -17 -15 12 0 17
3 34 7 37 12 13 23 7 23 -11z"/>
<path d="M160 268 c-4 -12 -7 -27 -9 -35 -1 -5 -9 1 -18 12 -14 18 -15 18 -9
2 3 -10 6 -35 6 -55 0 -26 3 -33 9 -23 5 8 7 20 4 28 -3 8 2 22 12 33 9 10 15
25 12 32 -3 7 -6 10 -7 6z"/>
<path d="M1787 236 c-9 -21 -17 -42 -17 -47 0 -15 -53 -23 -160 -23 -120 0
-159 15 -161 63 0 14 -3 20 -6 13 -11 -27 8 -59 52 -91 41 -30 51 -29 46 2 -1
5 3 6 9 2 5 -3 10 -12 10 -19 0 -9 18 -11 68 -8 103 7 132 20 159 72 13 24 22
51 20 60 -2 9 -10 -1 -20 -24z"/>
<path d="M2078 263 c-10 -3 -18 -8 -18 -13 0 -4 10 -6 23 -2 19 5 20 3 9 -10
-11 -14 -10 -17 5 -21 17 -4 17 -5 1 -6 -10 0 -18 -8 -18 -16 0 -9 6 -12 15
-9 11 5 13 2 8 -12 -4 -10 -2 -15 4 -11 14 9 14 72 0 89 -7 8 -20 13 -29 11z"/>
<path d="M2211 251 c-34 -9 -37 -28 -6 -33 17 -4 25 -1 25 8 0 8 4 14 9 14 5
0 7 -10 3 -22 -3 -14 -2 -19 6 -14 16 10 15 56 0 55 -7 -1 -24 -4 -37 -8z"/>
<path d="M2131 228 c0 -22 1 -22 9 -3 8 19 8 19 18 -5 l11 -25 0 28 c1 21 -4
27 -19 27 -14 0 -20 -6 -19 -22z"/>
<path d="M456 231 c-3 -5 2 -11 12 -13 10 -3 26 -20 35 -39 9 -19 17 -29 17
-22 0 7 -8 28 -17 48 -16 34 -36 45 -47 26z"/>
<path d="M623 215 c24 -46 46 -73 46 -55 0 8 -14 31 -30 50 -30 34 -31 34 -16
5z"/>
<path d="M2287 226 c-14 -11 -15 -16 -6 -22 7 -4 15 -2 17 4 5 16 32 15 32 0
1 -8 6 -6 14 5 18 23 29 22 16 -3 -6 -11 -20 -20 -30 -20 -11 0 -20 -4 -20 -9
0 -15 41 -4 60 16 9 10 15 24 12 31 -5 16 -72 15 -95 -2z"/>
<path d="M2807 220 c-4 -17 0 -20 31 -21 34 -2 35 -2 7 -6 -43 -6 -59 -26 -18
-21 18 1 32 -2 32 -7 0 -6 -7 -9 -15 -7 -8 2 -14 -1 -14 -7 0 -10 19 -9 38 2
19 12 14 52 -8 72 -19 17 -20 17 -20 -1 -1 -18 -1 -18 -14 -1 -13 17 -14 16
-19 -3z"/>
<path d="M2651 218 c0 -7 19 -29 41 -48 33 -28 39 -31 29 -12 -7 13 -18 25
-26 28 -7 3 -15 14 -18 25 -6 21 -28 27 -26 7z"/>
<path d="M1356 185 c-4 -15 -5 -30 -1 -33 3 -3 5 2 5 11 0 20 26 23 34 5 3 -7
5 -5 3 5 -1 10 -6 17 -11 17 -5 -1 -12 4 -16 10 -5 8 -10 2 -14 -15z"/>
<path d="M740 170 c-14 -11 -34 -20 -45 -21 -13 0 -15 -3 -6 -6 20 -8 91 18
91 34 0 18 -10 16 -40 -7z"/>
<path d="M303 138 c-2 -5 16 -8 41 -8 25 0 46 4 46 8 0 11 -80 10 -87 0z"/>
</g>
</svg>
