<?xml version="1.0" encoding="UTF-8" standalone="no" ?>
<!DOCTYPE svg PUBLIC "-//W3C//DTD SVG 1.1//EN" "http://www.w3.org/Graphics/SVG/1.1/DTD/svg11.dtd">
<svg xmlns="http://www.w3.org/2000/svg" xmlns:xlink="http://www.w3.org/1999/xlink" version="1.1" width="1080" height="1080" viewBox="0 0 1080 1080" xml:space="preserve">
<desc>Created with Fabric.js 5.2.4</desc>
<defs>
</defs>
<g transform="matrix(1 0 0 1 540 540)" id="a4a957d5-9175-4bab-9b88-13c72ef9b4ff"  >
<rect style="stroke: none; stroke-width: 1; stroke-dasharray: none; stroke-linecap: butt; stroke-dashoffset: 0; stroke-linejoin: miter; stroke-miterlimit: 4; fill: rgb(255,255,255); fill-rule: nonzero; opacity: 1; visibility: hidden;" vector-effect="non-scaling-stroke"  x="-540" y="-540" rx="0" ry="0" width="1080" height="1080" />
</g>
<g transform="matrix(1 0 0 1 540 540)" id="3b8589ed-f37b-4138-bb7b-73716326eb67"  >
</g>
<g transform="matrix(1 0 0 1 540 540)"  >
<g style="opacity: 0.1;" vector-effect="non-scaling-stroke"   >
		<g transform="matrix(0.13 0 0 -0.13 16.87 -42.99)"  >
<path style="stroke: none; stroke-width: 1; stroke-dasharray: none; stroke-linecap: butt; stroke-dashoffset: 0; stroke-linejoin: miter; stroke-miterlimit: 4; fill: rgb(0,0,0); fill-rule: nonzero; opacity: 1;" vector-effect="non-scaling-stroke"  transform=" translate(-1626.63, -839.57)" d="M 1593 906 C 1524 891 1497 864 1495 806 C 1494 780 1496 760 1501 760 C 1505 760 1510 784 1512 813 C 1515 863 1516 865 1550 876 C 1569 882 1609 890 1638 892 C 1688 897 1694 895 1726 865 C 1764 828 1770 832 1737 871 C 1713 900 1679 921 1658 919 C 1651 918 1621 913 1593 906 z" stroke-linecap="round" />
</g>
		<g transform="matrix(0.13 0 0 -0.13 -135.75 -49.64)"  >
<path style="stroke: none; stroke-width: 1; stroke-dasharray: none; stroke-linecap: butt; stroke-dashoffset: 0; stroke-linejoin: miter; stroke-miterlimit: 4; fill: rgb(0,0,0); fill-rule: nonzero; opacity: 1;" vector-effect="non-scaling-stroke"  transform=" translate(-481.98, -889.45)" d="M 445 890 L 395 871 L 440 878 C 465 882 506 885 532 885 C 574 885 577 886 557 897 C 527 913 504 912 445 890 z" stroke-linecap="round" />
</g>
		<g transform="matrix(0.13 0 0 -0.13 -70.06 -45.88)"  >
<path style="stroke: none; stroke-width: 1; stroke-dasharray: none; stroke-linecap: butt; stroke-dashoffset: 0; stroke-linejoin: miter; stroke-miterlimit: 4; fill: rgb(0,0,0); fill-rule: nonzero; opacity: 1;" vector-effect="non-scaling-stroke"  transform=" translate(-974.69, -861.3)" d="M 821 895 C 781 885 789 884 896 884 C 1027 884 1082 873 1132 834 C 1158 813 1157 815 1127 843 C 1097 870 1075 880 1027 889 C 932 905 869 907 821 895 z" stroke-linecap="round" />
</g>
		<g transform="matrix(0.13 0 0 -0.13 -17.46 -40.87)"  >
<path style="stroke: none; stroke-width: 1; stroke-dasharray: none; stroke-linecap: butt; stroke-dashoffset: 0; stroke-linejoin: miter; stroke-miterlimit: 4; fill: rgb(0,0,0); fill-rule: nonzero; opacity: 1;" vector-effect="non-scaling-stroke"  transform=" translate(-1369.16, -823.73)" d="M 1290 895 C 1265 881 1266 881 1301 887 C 1343 893 1392 872 1414 837 C 1422 825 1432 796 1436 772 C 1440 747 1446 733 1450 740 C 1454 747 1455 761 1453 771 C 1450 782 1453 797 1460 805 C 1469 816 1468 825 1450 849 C 1439 866 1419 886 1407 895 C 1380 914 1323 914 1290 895 z" stroke-linecap="round" />
</g>
		<g transform="matrix(0.13 0 0 -0.13 154.9 -48.18)"  >
<path style="stroke: none; stroke-width: 1; stroke-dasharray: none; stroke-linecap: butt; stroke-dashoffset: 0; stroke-linejoin: miter; stroke-miterlimit: 4; fill: rgb(0,0,0); fill-rule: nonzero; opacity: 1;" vector-effect="non-scaling-stroke"  transform=" translate(-2661.85, -878.52)" d="M 2451 891 C 2492 864 2803 849 2870 870 C 2900 880 2853 883 2645 884 C 2568 885 2489 889 2470 893 C 2445 899 2440 898 2451 891 z" stroke-linecap="round" />
</g>
		<g transform="matrix(0.13 0 0 -0.13 -22.43 -28.4)"  >
<path style="stroke: none; stroke-width: 1; stroke-dasharray: none; stroke-linecap: butt; stroke-dashoffset: 0; stroke-linejoin: miter; stroke-miterlimit: 4; fill: rgb(0,0,0); fill-rule: nonzero; opacity: 1;" vector-effect="non-scaling-stroke"  transform=" translate(-1331.89, -730.17)" d="M 1313 873 C 1306 871 1300 858 1300 845 C 1300 828 1309 818 1333 809 L 1365 796 L 1314 792 C 1271 790 1261 785 1251 764 C 1235 729 1237 717 1261 692 C 1272 680 1279 666 1276 661 C 1273 656 1281 653 1295 653 C 1319 653 1319 653 1304 682 C 1295 700 1283 710 1275 706 C 1257 700 1246 731 1262 742 C 1282 754 1290 752 1284 735 C 1280 726 1284 720 1293 720 C 1311 720 1322 757 1306 764 C 1300 767 1302 769 1310 768 C 1318 767 1334 771 1344 775 C 1358 781 1367 778 1376 765 C 1395 739 1393 730 1369 730 C 1337 730 1307 711 1318 697 C 1324 690 1330 676 1332 665 C 1335 648 1340 651 1363 685 C 1385 718 1390 721 1390 703 C 1390 691 1386 678 1380 675 C 1375 672 1370 660 1370 649 C 1370 639 1366 630 1360 630 C 1355 630 1350 620 1350 607 C 1350 590 1356 584 1375 582 C 1398 580 1400 584 1400 623 C 1401 646 1407 690 1414 722 C 1428 778 1428 778 1399 809 C 1384 826 1359 845 1343 851 C 1321 859 1319 863 1330 870 C 1346 880 1334 882 1313 873 z" stroke-linecap="round" />
</g>
		<g transform="matrix(0.13 0 0 -0.13 -165.49 -40.56)"  >
<path style="stroke: none; stroke-width: 1; stroke-dasharray: none; stroke-linecap: butt; stroke-dashoffset: 0; stroke-linejoin: miter; stroke-miterlimit: 4; fill: rgb(0,0,0); fill-rule: nonzero; opacity: 1;" vector-effect="non-scaling-stroke"  transform=" translate(-258.96, -821.39)" d="M 275 844 C 226 829 194 824 192 830 C 190 836 175 826 159 809 C 124 772 122 765 153 784 C 165 792 213 810 260 825 C 400 869 398 868 375 869 C 364 869 319 858 275 844 z" stroke-linecap="round" />
</g>
		<g transform="matrix(0.13 0 0 -0.13 -95.35 -39.59)"  >
<path style="stroke: none; stroke-width: 1; stroke-dasharray: none; stroke-linecap: butt; stroke-dashoffset: 0; stroke-linejoin: miter; stroke-miterlimit: 4; fill: rgb(0,0,0); fill-rule: nonzero; opacity: 1;" vector-effect="non-scaling-stroke"  transform=" translate(-785, -814.09)" d="M 810 865 C 802 863 778 859 758 855 C 732 851 720 844 720 833 C 720 819 722 819 740 835 C 767 860 810 848 810 816 C 810 788 786 765 765 774 C 757 777 750 789 750 802 C 750 819 747 821 738 812 C 729 803 731 796 745 780 C 755 769 768 760 775 760 C 794 760 820 794 820 818 C 820 831 826 840 835 840 C 843 840 850 847 850 855 C 850 869 842 871 810 865 z" stroke-linecap="round" />
</g>
		<g transform="matrix(0.13 0 0 -0.13 50.39 -39.61)"  >
<path style="stroke: none; stroke-width: 1; stroke-dasharray: none; stroke-linecap: butt; stroke-dashoffset: 0; stroke-linejoin: miter; stroke-miterlimit: 4; fill: rgb(0,0,0); fill-rule: nonzero; opacity: 1;" vector-effect="non-scaling-stroke"  transform=" translate(-1878.04, -814.22)" d="M 1895 850 C 1885 839 1867 830 1854 830 C 1830 830 1797 801 1778 765 C 1772 754 1785 762 1807 783 C 1829 803 1849 818 1852 814 C 1856 811 1874 820 1893 834 C 1928 861 1950 867 1950 850 C 1950 845 1957 843 1965 846 C 1990 856 1982 866 1947 868 C 1924 870 1908 864 1895 850 z" stroke-linecap="round" />
</g>
		<g transform="matrix(0.13 0 0 -0.13 77.88 -40.84)"  >
<path style="stroke: none; stroke-width: 1; stroke-dasharray: none; stroke-linecap: butt; stroke-dashoffset: 0; stroke-linejoin: miter; stroke-miterlimit: 4; fill: rgb(0,0,0); fill-rule: nonzero; opacity: 1;" vector-effect="non-scaling-stroke"  transform=" translate(-2084.25, -823.44)" d="M 2046 851 C 2064 840 2079 828 2081 823 C 2083 818 2101 803 2120 790 C 2140 776 2149 773 2142 782 C 2134 792 2132 805 2136 811 C 2140 819 2139 820 2132 816 C 2126 812 2102 823 2079 840 C 2056 856 2032 870 2026 870 C 2020 870 2029 861 2046 851 z" stroke-linecap="round" />
</g>
		<g transform="matrix(0.13 0 0 -0.13 -142.64 -34.18)"  >
<path style="stroke: none; stroke-width: 1; stroke-dasharray: none; stroke-linecap: butt; stroke-dashoffset: 0; stroke-linejoin: miter; stroke-miterlimit: 4; fill: rgb(0,0,0); fill-rule: nonzero; opacity: 1;" vector-effect="non-scaling-stroke"  transform=" translate(-430.37, -773.49)" d="M 417 853 C 377 842 355 824 352 798 C 349 776 353 770 368 770 C 391 770 405 741 390 726 C 383 719 380 721 380 732 C 380 741 366 753 349 759 C 309 773 311 773 313 751 C 314 736 318 734 331 741 C 356 754 357 753 363 720 C 371 680 397 681 405 722 C 411 749 408 757 384 777 C 361 795 358 802 368 812 C 374 818 385 825 392 827 C 464 843 462 844 456 824 C 452 811 457 801 471 792 C 490 780 491 781 488 812 C 485 841 488 844 510 845 C 533 845 535 842 532 808 C 530 784 533 770 540 770 C 547 770 550 786 548 813 L 545 855 L 490 856 C 460 857 427 856 417 853 z" stroke-linecap="round" />
</g>
		<g transform="matrix(0.13 0 0 -0.13 -71.4 -40.82)"  >
<path style="stroke: none; stroke-width: 1; stroke-dasharray: none; stroke-linecap: butt; stroke-dashoffset: 0; stroke-linejoin: miter; stroke-miterlimit: 4; fill: rgb(0,0,0); fill-rule: nonzero; opacity: 1;" vector-effect="non-scaling-stroke"  transform=" translate(-964.63, -823.34)" d="M 883 854 C 857 842 871 832 899 843 C 914 848 935 850 945 846 C 962 840 962 839 944 826 C 927 813 927 812 953 817 C 968 820 978 825 976 829 C 973 833 984 837 1000 838 C 1022 840 1029 835 1034 815 C 1040 791 1060 779 1060 800 C 1060 806 1055 810 1049 810 C 1041 810 1041 814 1049 824 C 1058 835 1058 840 1049 846 C 1034 855 900 862 883 854 z" stroke-linecap="round" />
</g>
		<g transform="matrix(0.13 0 0 -0.13 -30.55 -27.26)"  >
<path style="stroke: none; stroke-width: 1; stroke-dasharray: none; stroke-linecap: butt; stroke-dashoffset: 0; stroke-linejoin: miter; stroke-miterlimit: 4; fill: rgb(0,0,0); fill-rule: nonzero; opacity: 1;" vector-effect="non-scaling-stroke"  transform=" translate(-1271.02, -721.64)" d="M 1269 855 C 1268 852 1267 847 1266 843 C 1263 828 1249 810 1239 810 C 1233 810 1232 815 1236 822 C 1240 829 1239 830 1232 826 C 1226 822 1224 812 1227 803 C 1231 792 1229 789 1222 794 C 1210 801 1197 747 1204 715 C 1207 704 1209 687 1209 677 C 1210 667 1214 661 1219 665 C 1225 668 1234 662 1239 651 C 1254 623 1253 617 1233 624 C 1218 630 1219 627 1236 610 C 1263 583 1340 570 1340 593 C 1340 626 1328 640 1305 634 C 1286 629 1276 636 1251 671 C 1234 694 1220 725 1220 740 C 1220 767 1256 810 1278 810 C 1285 810 1290 821 1290 835 C 1290 856 1273 872 1269 855 z" stroke-linecap="round" />
</g>
		<g transform="matrix(0.13 0 0 -0.13 14.45 -38.6)"  >
<path style="stroke: none; stroke-width: 1; stroke-dasharray: none; stroke-linecap: butt; stroke-dashoffset: 0; stroke-linejoin: miter; stroke-miterlimit: 4; fill: rgb(0,0,0); fill-rule: nonzero; opacity: 1;" vector-effect="non-scaling-stroke"  transform=" translate(-1608.5, -806.68)" d="M 1561 846 C 1547 839 1535 822 1533 809 L 1529 786 L 1550 808 C 1574 833 1575 834 1602 819 C 1617 811 1620 802 1615 782 C 1609 756 1609 756 1624 775 C 1638 795 1639 795 1649 770 C 1654 756 1659 752 1659 760 C 1660 768 1653 788 1645 804 C 1632 828 1632 835 1642 842 C 1667 857 1679 850 1683 818 L 1688 785 L 1686 820 C 1685 855 1685 855 1635 857 C 1607 859 1574 854 1561 846 z" stroke-linecap="round" />
</g>
		<g transform="matrix(0.13 0 0 -0.13 16.76 -21.19)"  >
<path style="stroke: none; stroke-width: 1; stroke-dasharray: none; stroke-linecap: butt; stroke-dashoffset: 0; stroke-linejoin: miter; stroke-miterlimit: 4; fill: rgb(0,0,0); fill-rule: nonzero; opacity: 1;" vector-effect="non-scaling-stroke"  transform=" translate(-1625.85, -676.09)" d="M 1706 799 C 1710 756 1707 740 1695 730 C 1687 723 1677 720 1673 723 C 1670 727 1661 725 1654 719 C 1637 705 1610 714 1610 734 C 1610 743 1603 746 1590 743 C 1576 739 1563 745 1550 760 C 1539 773 1530 777 1530 770 C 1530 763 1537 752 1547 745 C 1564 733 1556 705 1539 716 C 1533 719 1530 705 1531 678 C 1532 655 1531 628 1529 620 C 1526 608 1536 605 1580 605 L 1635 605 L 1638 572 C 1641 544 1645 539 1661 543 C 1673 546 1686 540 1696 527 C 1711 506 1711 506 1708 540 C 1706 568 1700 576 1683 578 C 1654 582 1654 596 1682 611 C 1695 618 1710 628 1716 635 C 1729 647 1723 697 1709 706 C 1704 709 1700 716 1700 721 C 1700 727 1705 728 1710 725 C 1722 717 1722 760 1710 815 C 1702 851 1701 849 1706 799 z M 1620 686 C 1620 673 1626 659 1633 656 C 1648 650 1614 620 1591 620 C 1573 620 1540 649 1540 666 C 1540 687 1570 710 1596 710 C 1615 710 1620 705 1620 686 z M 1695 690 C 1702 668 1693 630 1681 630 C 1671 630 1650 675 1650 695 C 1650 717 1688 713 1695 690 z" stroke-linecap="round" />
</g>
		<g transform="matrix(0.13 0 0 -0.13 155.28 -38.15)"  >
<path style="stroke: none; stroke-width: 1; stroke-dasharray: none; stroke-linecap: butt; stroke-dashoffset: 0; stroke-linejoin: miter; stroke-miterlimit: 4; fill: rgb(0,0,0); fill-rule: nonzero; opacity: 1;" vector-effect="non-scaling-stroke"  transform=" translate(-2664.74, -803.3)" d="M 2476 833 C 2466 807 2469 795 2481 807 C 2489 815 2501 815 2516 810 C 2530 804 2542 805 2545 811 C 2549 816 2556 818 2561 814 C 2567 811 2588 807 2608 805 C 2631 804 2645 798 2646 789 C 2648 761 2650 759 2664 772 C 2673 781 2675 789 2668 797 C 2662 805 2665 810 2679 815 C 2702 822 2733 808 2752 782 C 2770 758 2793 755 2788 777 C 2786 787 2779 794 2773 793 C 2756 789 2750 818 2766 824 C 2775 828 2796 816 2818 794 L 2855 758 L 2858 795 C 2860 815 2860 834 2858 836 C 2856 838 2822 842 2782 846 C 2728 851 2705 849 2688 838 C 2673 828 2654 826 2633 831 C 2613 835 2600 833 2600 828 C 2600 822 2592 821 2583 825 C 2573 828 2546 835 2523 839 C 2490 845 2480 844 2476 833 z" stroke-linecap="round" />
</g>
		<g transform="matrix(0.13 0 0 -0.13 113.47 -35.88)"  >
<path style="stroke: none; stroke-width: 1; stroke-dasharray: none; stroke-linecap: butt; stroke-dashoffset: 0; stroke-linejoin: miter; stroke-miterlimit: 4; fill: rgb(0,0,0); fill-rule: nonzero; opacity: 1;" vector-effect="non-scaling-stroke"  transform=" translate(-2351.18, -786.26)" d="M 2295 830 C 2277 823 2277 821 2303 811 C 2319 805 2335 800 2340 800 C 2345 800 2365 785 2384 766 C 2404 748 2420 737 2420 741 C 2420 756 2385 786 2352 801 C 2335 808 2319 820 2318 826 C 2316 833 2307 834 2295 830 z" stroke-linecap="round" />
</g>
		<g transform="matrix(0.13 0 0 -0.13 -50.73 -37.8)"  >
<path style="stroke: none; stroke-width: 1; stroke-dasharray: none; stroke-linecap: butt; stroke-dashoffset: 0; stroke-linejoin: miter; stroke-miterlimit: 4; fill: rgb(0,0,0); fill-rule: nonzero; opacity: 1;" vector-effect="non-scaling-stroke"  transform=" translate(-1119.7, -800.7)" d="M 1100 814 C 1100 791 1126 763 1137 774 C 1141 778 1140 784 1134 788 C 1128 792 1118 804 1112 815 C 1101 835 1101 835 1100 814 z" stroke-linecap="round" />
</g>
		<g transform="matrix(0.13 0 0 -0.13 69.11 -27.64)"  >
<path style="stroke: none; stroke-width: 1; stroke-dasharray: none; stroke-linecap: butt; stroke-dashoffset: 0; stroke-linejoin: miter; stroke-miterlimit: 4; fill: rgb(0,0,0); fill-rule: nonzero; opacity: 1;" vector-effect="non-scaling-stroke"  transform=" translate(-2018.43, -724.49)" d="M 1958 771 C 1956 733 1959 708 1968 701 C 1985 685 1983 651 1965 644 C 1957 640 1950 633 1950 627 C 1950 622 1959 625 1969 634 C 1981 645 1994 649 2002 645 C 2012 639 2013 640 2003 651 C 1983 672 1987 710 2009 710 C 2020 710 2031 704 2033 698 C 2036 691 2039 695 2039 708 C 2040 734 2057 738 2063 713 C 2065 703 2066 707 2064 722 C 2062 739 2066 753 2077 758 C 2096 769 2086 790 2060 790 C 2041 790 2030 771 2030 739 C 2030 729 2023 720 2015 720 C 2005 720 1999 736 1994 769 C 1984 842 1963 843 1958 771 z" stroke-linecap="round" />
</g>
		<g transform="matrix(0.13 0 0 -0.13 -167.84 -24.02)"  >
<path style="stroke: none; stroke-width: 1; stroke-dasharray: none; stroke-linecap: butt; stroke-dashoffset: 0; stroke-linejoin: miter; stroke-miterlimit: 4; fill: rgb(0,0,0); fill-rule: nonzero; opacity: 1;" vector-effect="non-scaling-stroke"  transform=" translate(-241.37, -697.36)" d="M 300 810 C 256 802 174 766 154 745 C 140 732 140 730 155 730 C 168 730 171 723 168 700 C 164 675 167 670 183 670 C 202 670 203 660 184 598 C 177 574 193 575 215 600 C 227 613 229 620 220 620 C 212 620 209 630 212 652 C 215 672 212 689 204 695 C 187 708 174 760 188 760 C 194 760 202 756 205 750 C 209 744 221 746 236 756 C 250 766 260 768 260 761 C 260 756 267 753 275 756 C 287 761 288 765 279 776 C 263 796 274 804 298 791 C 313 783 321 784 330 795 C 347 815 342 818 300 810 z" stroke-linecap="round" />
</g>
		<g transform="matrix(0.13 0 0 -0.13 -81.57 -32.28)"  >
<path style="stroke: none; stroke-width: 1; stroke-dasharray: none; stroke-linecap: butt; stroke-dashoffset: 0; stroke-linejoin: miter; stroke-miterlimit: 4; fill: rgb(0,0,0); fill-rule: nonzero; opacity: 1;" vector-effect="non-scaling-stroke"  transform=" translate(-888.35, -759.31)" d="M 910 783 C 896 774 882 761 878 754 C 869 740 830 747 830 762 C 830 768 824 767 815 760 C 801 748 784 749 716 766 C 673 776 692 753 738 740 C 784 726 1061 716 1077 727 C 1084 732 1087 746 1083 759 C 1077 781 1077 781 1059 753 C 1042 727 1040 727 1040 747 C 1040 777 1030 801 1019 794 C 1014 791 1010 780 1010 768 C 1010 752 1007 750 996 759 C 986 767 980 768 975 760 C 964 742 949 749 952 772 C 956 800 941 804 910 783 z M 940 766 C 940 749 913 737 905 750 C 901 756 902 765 905 770 C 914 785 940 782 940 766 z" stroke-linecap="round" />
</g>
		<g transform="matrix(0.13 0 0 -0.13 58.75 -21.04)"  >
<path style="stroke: none; stroke-width: 1; stroke-dasharray: none; stroke-linecap: butt; stroke-dashoffset: 0; stroke-linejoin: miter; stroke-miterlimit: 4; fill: rgb(0,0,0); fill-rule: nonzero; opacity: 1;" vector-effect="non-scaling-stroke"  transform=" translate(-1940.8, -675)" d="M 1874 754 C 1877 728 1885 701 1890 694 C 1898 686 1898 680 1890 675 C 1884 671 1887 662 1901 652 C 1920 636 1921 632 1907 592 L 1892 550 L 1938 550 C 1984 550 2009 568 2010 600 C 2010 610 2005 608 1995 593 C 1964 549 1912 558 1925 606 C 1938 652 1933 720 1916 739 C 1907 749 1903 760 1906 763 C 1914 771 1891 800 1877 800 C 1871 800 1870 782 1874 754 z M 1920 686 C 1919 667 1918 667 1905 690 C 1885 725 1886 752 1905 726 C 1913 715 1920 697 1920 686 z" stroke-linecap="round" />
</g>
		<g transform="matrix(0.13 0 0 -0.13 107.85 -21.71)"  >
<path style="stroke: none; stroke-width: 1; stroke-dasharray: none; stroke-linecap: butt; stroke-dashoffset: 0; stroke-linejoin: miter; stroke-miterlimit: 4; fill: rgb(0,0,0); fill-rule: nonzero; opacity: 1;" vector-effect="non-scaling-stroke"  transform=" translate(-2308.99, -680.01)" d="M 2260 785 C 2253 777 2241 770 2234 770 C 2213 770 2214 612 2235 604 C 2243 600 2250 592 2250 585 C 2250 578 2260 570 2273 566 C 2339 548 2382 571 2395 630 C 2402 663 2401 664 2387 645 C 2375 629 2369 628 2359 637 C 2349 647 2349 658 2360 690 C 2367 712 2371 733 2368 735 C 2365 738 2357 721 2349 697 C 2340 666 2329 649 2311 642 L 2285 630 L 2313 635 C 2328 638 2340 636 2340 630 C 2340 625 2347 620 2355 620 C 2363 620 2370 614 2370 607 C 2370 583 2357 579 2338 597 C 2321 612 2319 612 2306 594 C 2298 584 2288 579 2284 583 C 2279 587 2282 595 2290 600 C 2303 608 2303 610 2289 610 C 2278 610 2270 622 2266 644 C 2262 663 2253 681 2245 684 C 2237 687 2230 699 2230 710 C 2230 766 2279 792 2332 765 C 2349 757 2365 752 2368 754 C 2373 759 2296 800 2282 800 C 2277 800 2267 793 2260 785 z M 2260 628 C 2260 598 2235 613 2232 645 C 2229 670 2230 672 2244 661 C 2253 653 2260 639 2260 628 z" stroke-linecap="round" />
</g>
		<g transform="matrix(0.13 0 0 -0.13 157.13 -26.04)"  >
<path style="stroke: none; stroke-width: 1; stroke-dasharray: none; stroke-linecap: butt; stroke-dashoffset: 0; stroke-linejoin: miter; stroke-miterlimit: 4; fill: rgb(0,0,0); fill-rule: nonzero; opacity: 1;" vector-effect="non-scaling-stroke"  transform=" translate(-2678.61, -712.45)" d="M 2496 762 C 2497 689 2492 693 2587 691 C 2696 688 2763 674 2786 649 C 2808 625 2820 625 2820 650 C 2820 661 2825 670 2831 670 C 2852 670 2866 695 2860 720 L 2854 745 L 2846 723 C 2842 710 2835 700 2830 700 C 2825 700 2818 691 2815 680 C 2807 654 2789 655 2759 683 C 2745 695 2727 704 2718 702 C 2709 700 2691 704 2678 711 C 2665 718 2651 724 2645 725 C 2617 726 2592 751 2596 772 C 2600 793 2600 794 2591 775 C 2581 756 2581 756 2574 778 C 2570 793 2565 798 2560 790 C 2548 770 2573 730 2598 730 C 2611 730 2618 726 2615 720 C 2604 702 2562 709 2555 731 C 2548 751 2523 752 2527 732 C 2529 726 2523 723 2515 726 C 2498 733 2496 752 2510 766 C 2518 774 2517 780 2508 788 C 2498 796 2495 791 2496 762 z" stroke-linecap="round" />
</g>
		<g transform="matrix(0.13 0 0 -0.13 161.72 -32.55)"  >
<path style="stroke: none; stroke-width: 1; stroke-dasharray: none; stroke-linecap: butt; stroke-dashoffset: 0; stroke-linejoin: miter; stroke-miterlimit: 4; fill: rgb(0,0,0); fill-rule: nonzero; opacity: 1;" vector-effect="non-scaling-stroke"  transform=" translate(-2713, -761.32)" d="M 2711 782 C 2738 760 2732 734 2698 727 C 2682 723 2684 722 2705 723 C 2728 725 2736 730 2738 748 C 2742 774 2725 800 2703 800 C 2692 800 2695 794 2711 782 z" stroke-linecap="round" />
</g>
		<g transform="matrix(0.13 0 0 -0.13 -133.87 -27.1)"  >
<path style="stroke: none; stroke-width: 1; stroke-dasharray: none; stroke-linecap: butt; stroke-dashoffset: 0; stroke-linejoin: miter; stroke-miterlimit: 4; fill: rgb(0,0,0); fill-rule: nonzero; opacity: 1;" vector-effect="non-scaling-stroke"  transform=" translate(-496.14, -720.45)" d="M 559 744 C 552 735 537 730 523 733 C 510 735 495 731 489 724 C 475 707 443 706 437 723 C 434 730 431 728 431 718 C 430 708 424 699 418 699 C 403 697 456 683 482 681 C 494 680 497 686 493 701 C 488 718 491 721 506 718 C 517 716 524 707 523 696 C 522 679 523 679 538 697 C 557 718 582 760 576 760 C 574 760 567 753 559 744 z" stroke-linecap="round" />
</g>
		<g transform="matrix(0.13 0 0 -0.13 175.96 -30.01)"  >
<path style="stroke: none; stroke-width: 1; stroke-dasharray: none; stroke-linecap: butt; stroke-dashoffset: 0; stroke-linejoin: miter; stroke-miterlimit: 4; fill: rgb(0,0,0); fill-rule: nonzero; opacity: 1;" vector-effect="non-scaling-stroke"  transform=" translate(-2819.86, -742.25)" d="M 2800 747 C 2800 728 2810 720 2826 727 C 2847 735 2843 760 2820 760 C 2809 760 2800 754 2800 747 z" stroke-linecap="round" />
</g>
		<g transform="matrix(0.13 0 0 -0.13 -110.46 -21.94)"  >
<path style="stroke: none; stroke-width: 1; stroke-dasharray: none; stroke-linecap: butt; stroke-dashoffset: 0; stroke-linejoin: miter; stroke-miterlimit: 4; fill: rgb(0,0,0); fill-rule: nonzero; opacity: 1;" vector-effect="non-scaling-stroke"  transform=" translate(-671.71, -681.73)" d="M 580 710 C 556 664 553 641 577 684 L 593 714 L 612 690 C 623 676 630 656 627 643 L 623 621 L 648 640 C 681 667 728 665 758 638 L 783 615 L 771 637 C 757 664 730 680 698 680 C 685 680 669 685 662 692 C 655 699 650 700 650 694 C 650 689 655 679 662 672 C 669 665 670 660 664 660 C 651 660 615 699 607 723 C 599 743 629 747 648 728 C 657 719 660 719 660 729 C 660 736 665 738 670 735 C 676 732 680 733 680 738 C 680 743 662 747 640 748 C 603 750 599 747 580 710 z" stroke-linecap="round" />
</g>
		<g transform="matrix(0.13 0 0 -0.13 -163.46 -28.02)"  >
<path style="stroke: none; stroke-width: 1; stroke-dasharray: none; stroke-linecap: butt; stroke-dashoffset: 0; stroke-linejoin: miter; stroke-miterlimit: 4; fill: rgb(0,0,0); fill-rule: nonzero; opacity: 1;" vector-effect="non-scaling-stroke"  transform=" translate(-274.17, -727.35)" d="M 257 733 C 244 721 250 713 272 715 C 299 717 309 740 283 740 C 272 740 260 737 257 733 z" stroke-linecap="round" />
</g>
		<g transform="matrix(0.13 0 0 -0.13 -56.55 -21.31)"  >
<path style="stroke: none; stroke-width: 1; stroke-dasharray: none; stroke-linecap: butt; stroke-dashoffset: 0; stroke-linejoin: miter; stroke-miterlimit: 4; fill: rgb(0,0,0); fill-rule: nonzero; opacity: 1;" vector-effect="non-scaling-stroke"  transform=" translate(-1076.02, -677)" d="M 1085 718 C 1023 702 1013 698 1027 693 C 1034 691 1036 682 1033 674 C 1030 665 1034 660 1044 660 C 1058 660 1059 664 1050 680 C 1040 698 1042 700 1070 700 C 1104 700 1107 691 1084 652 L 1068 625 L 1089 649 C 1101 662 1110 680 1110 689 C 1110 698 1115 711 1122 718 C 1129 725 1132 729 1130 729 C 1127 728 1107 723 1085 718 z" stroke-linecap="round" />
</g>
		<g transform="matrix(0.13 0 0 -0.13 -159.84 -21.42)"  >
<path style="stroke: none; stroke-width: 1; stroke-dasharray: none; stroke-linecap: butt; stroke-dashoffset: 0; stroke-linejoin: miter; stroke-miterlimit: 4; fill: rgb(0,0,0); fill-rule: nonzero; opacity: 1;" vector-effect="non-scaling-stroke"  transform=" translate(-301.36, -677.83)" d="M 300 697 C 286 685 266 664 255 650 C 240 631 244 633 273 658 C 294 676 322 690 337 690 C 358 690 361 692 350 705 C 334 724 330 724 300 697 z" stroke-linecap="round" />
</g>
		<g transform="matrix(0.13 0 0 -0.13 45.55 -15.69)"  >
<path style="stroke: none; stroke-width: 1; stroke-dasharray: none; stroke-linecap: butt; stroke-dashoffset: 0; stroke-linejoin: miter; stroke-miterlimit: 4; fill: rgb(0,0,0); fill-rule: nonzero; opacity: 1;" vector-effect="non-scaling-stroke"  transform=" translate(-1841.75, -634.88)" d="M 1810 703 C 1809 690 1807 674 1806 668 C 1805 661 1808 653 1812 650 C 1816 647 1821 634 1823 623 C 1826 599 1857 560 1873 560 C 1878 560 1879 574 1876 593 C 1872 610 1868 632 1867 641 C 1866 653 1859 657 1843 654 C 1824 650 1821 655 1817 687 C 1815 710 1812 716 1810 703 z" stroke-linecap="round" />
</g>
		<g transform="matrix(0.13 0 0 -0.13 126.55 -20.32)"  >
<path style="stroke: none; stroke-width: 1; stroke-dasharray: none; stroke-linecap: butt; stroke-dashoffset: 0; stroke-linejoin: miter; stroke-miterlimit: 4; fill: rgb(0,0,0); fill-rule: nonzero; opacity: 1;" vector-effect="non-scaling-stroke"  transform=" translate(-2449.28, -669.56)" d="M 2454 694 C 2444 653 2439 646 2429 661 C 2424 669 2420 671 2420 665 C 2420 660 2425 648 2430 640 C 2438 627 2440 627 2440 639 C 2440 650 2444 648 2454 634 C 2462 624 2472 619 2477 623 C 2481 628 2477 636 2468 641 C 2454 649 2453 655 2462 681 C 2468 697 2470 714 2467 717 C 2464 720 2458 709 2454 694 z" stroke-linecap="round" />
</g>
		<g transform="matrix(0.13 0 0 -0.13 -79.82 -20.53)"  >
<path style="stroke: none; stroke-width: 1; stroke-dasharray: none; stroke-linecap: butt; stroke-dashoffset: 0; stroke-linejoin: miter; stroke-miterlimit: 4; fill: rgb(0,0,0); fill-rule: nonzero; opacity: 1;" vector-effect="non-scaling-stroke"  transform=" translate(-901.51, -671.17)" d="M 900 702 C 936 691 908 677 867 686 C 823 696 790 697 790 689 C 790 679 905 667 955 672 C 990 675 995 673 994 654 C 994 641 999 634 1005 636 C 1011 639 1015 654 1012 670 C 1009 695 1003 700 981 700 C 967 700 937 702 915 705 C 887 708 882 707 900 702 z" stroke-linecap="round" />
</g>
		<g transform="matrix(0.13 0 0 -0.13 151.68 -16.78)"  >
<path style="stroke: none; stroke-width: 1; stroke-dasharray: none; stroke-linecap: butt; stroke-dashoffset: 0; stroke-linejoin: miter; stroke-miterlimit: 4; fill: rgb(0,0,0); fill-rule: nonzero; opacity: 1;" vector-effect="non-scaling-stroke"  transform=" translate(-2637.76, -643.03)" d="M 2587 672 C 2553 663 2530 645 2530 626 C 2530 611 2533 609 2542 618 C 2549 625 2562 630 2573 630 C 2583 630 2589 634 2586 639 C 2577 652 2606 660 2618 648 C 2626 640 2634 640 2642 647 C 2649 652 2665 657 2676 658 C 2692 658 2697 654 2693 640 C 2690 630 2693 619 2699 616 C 2705 612 2710 617 2711 627 C 2711 643 2712 643 2720 625 C 2727 608 2729 608 2729 623 C 2730 632 2736 640 2742 640 C 2749 640 2745 646 2735 654 C 2716 667 2615 679 2587 672 z" stroke-linecap="round" />
</g>
		<g transform="matrix(0.13 0 0 -0.13 31.38 15.95)"  >
<path style="stroke: none; stroke-width: 1; stroke-dasharray: none; stroke-linecap: butt; stroke-dashoffset: 0; stroke-linejoin: miter; stroke-miterlimit: 4; fill: rgb(0,0,0); fill-rule: nonzero; opacity: 1;" vector-effect="non-scaling-stroke"  transform=" translate(-1735.48, -397.55)" d="M 1771 655 C 1770 640 1768 638 1761 649 C 1742 679 1730 524 1745 453 C 1751 427 1749 420 1737 420 C 1718 420 1696 446 1705 460 C 1708 465 1704 473 1696 476 C 1687 479 1680 488 1680 496 C 1680 503 1669 512 1655 516 C 1642 519 1628 531 1625 541 C 1621 551 1612 560 1604 560 C 1596 560 1590 567 1590 576 C 1590 589 1587 590 1576 581 C 1566 573 1555 573 1536 580 C 1510 589 1510 589 1523 569 C 1531 558 1535 539 1532 528 C 1529 514 1531 509 1538 514 C 1545 518 1550 528 1550 536 C 1550 544 1555 550 1561 550 C 1567 550 1570 544 1567 536 C 1563 526 1569 520 1583 517 C 1605 514 1605 513 1580 502 C 1557 492 1556 491 1576 491 C 1601 490 1614 512 1597 529 C 1591 535 1589 542 1592 546 C 1602 556 1693 463 1686 451 C 1677 437 1603 436 1595 450 C 1591 456 1584 458 1579 455 C 1574 451 1570 457 1570 467 C 1570 482 1568 483 1560 470 C 1554 460 1550 459 1550 468 C 1550 474 1546 480 1540 480 C 1535 480 1530 473 1530 465 C 1530 445 1514 446 1506 467 C 1502 476 1505 487 1512 492 C 1521 497 1519 500 1505 500 C 1487 501 1486 501 1503 511 C 1512 516 1520 526 1520 532 C 1520 538 1511 535 1500 525 C 1488 515 1481 501 1484 496 C 1501 453 1501 453 1465 447 C 1416 439 1400 424 1401 386 L 1402 355 L 1409 385 C 1418 428 1464 436 1620 420 C 1766 405 1786 399 1801 366 C 1809 350 1824 340 1848 335 C 1915 322 1960 299 1961 276 C 1961 265 1964 260 1966 267 C 1972 281 2000 273 2000 256 C 2000 250 1991 239 1980 232 C 1966 224 1960 209 1960 183 C 1960 144 1971 144 1975 182 C 1976 195 1978 208 1979 213 C 1979 217 1992 220 2008 219 C 2023 219 2029 216 2022 213 C 2016 211 2013 204 2016 198 C 2019 193 2009 175 1994 158 C 1969 132 1968 129 1988 139 C 2000 145 2017 162 2026 175 C 2035 189 2048 196 2056 193 C 2064 190 2070 192 2070 198 C 2070 204 2065 210 2060 212 C 2054 214 2048 225 2047 238 C 2047 250 2038 263 2028 266 C 1987 279 1964 338 1989 366 C 1994 371 2001 386 2005 400 C 2011 422 2008 421 1976 388 C 1957 367 1937 350 1932 350 C 1915 350 1888 389 1893 405 C 1901 424 1936 425 1943 405 C 1952 384 1933 377 1921 397 C 1912 413 1911 413 1910 398 C 1910 373 1930 365 1948 384 C 1969 405 1953 435 1920 435 C 1888 435 1871 406 1888 379 C 1905 352 1893 339 1874 364 C 1866 375 1860 378 1860 372 C 1860 346 1822 362 1790 401 C 1766 431 1761 444 1770 450 C 1780 456 1779 459 1769 462 C 1757 467 1757 471 1769 491 C 1781 512 1781 515 1761 528 C 1737 544 1734 574 1754 608 L 1766 631 L 1793 592 L 1819 552 L 1797 542 C 1776 532 1776 531 1803 531 C 1819 530 1829 526 1826 521 C 1823 516 1828 509 1837 505 C 1847 502 1856 504 1858 509 C 1860 515 1866 518 1871 515 C 1876 511 1877 515 1874 523 C 1871 531 1858 543 1845 550 C 1815 566 1795 596 1782 641 C 1775 662 1771 667 1771 655 z" stroke-linecap="round" />
</g>
		<g transform="matrix(0.13 0 0 -0.13 -145.43 4.31)"  >
<path style="stroke: none; stroke-width: 1; stroke-dasharray: none; stroke-linecap: butt; stroke-dashoffset: 0; stroke-linejoin: miter; stroke-miterlimit: 4; fill: rgb(0,0,0); fill-rule: nonzero; opacity: 1;" vector-effect="non-scaling-stroke"  transform=" translate(-409.38, -484.87)" d="M 320 649 C 320 634 342 614 368 606 C 393 598 397 568 375 550 C 366 542 360 542 360 548 C 360 554 348 557 333 554 C 306 549 306 549 324 569 C 342 588 339 610 319 610 C 313 610 311 601 315 591 C 323 566 304 555 283 572 C 268 584 268 583 279 563 C 303 518 352 508 393 540 C 426 567 432 565 450 527 C 458 510 474 494 485 492 C 531 485 533 482 510 444 C 490 412 489 406 501 382 C 508 367 516 352 518 348 C 520 343 513 340 502 340 C 491 340 477 333 470 325 C 460 313 460 310 473 310 C 482 310 492 315 495 320 C 505 336 518 332 522 313 C 525 303 528 316 531 343 C 534 376 532 389 524 386 C 517 383 513 391 514 406 C 515 425 519 429 535 424 C 550 420 551 421 541 428 C 530 436 529 446 538 481 C 547 516 546 522 536 508 C 520 487 501 498 431 568 C 396 604 381 625 388 632 C 395 639 405 638 418 631 C 444 617 480 621 499 638 C 506 645 519 649 526 646 C 534 643 540 645 540 650 C 540 666 474 662 460 645 C 451 634 443 633 428 641 C 418 647 396 649 380 645 C 364 642 349 643 345 649 C 337 663 320 663 320 649 z" stroke-linecap="round" />
</g>
		<g transform="matrix(0.13 0 0 -0.13 180.84 -13.82)"  >
<path style="stroke: none; stroke-width: 1; stroke-dasharray: none; stroke-linecap: butt; stroke-dashoffset: 0; stroke-linejoin: miter; stroke-miterlimit: 4; fill: rgb(0,0,0); fill-rule: nonzero; opacity: 1;" vector-effect="non-scaling-stroke"  transform=" translate(-2856.45, -620.86)" d="M 2850 642 C 2850 632 2846 620 2840 614 C 2834 608 2834 599 2840 590 C 2848 578 2850 579 2850 597 C 2850 609 2857 623 2866 628 C 2875 633 2880 642 2876 649 C 2865 666 2850 662 2850 642 z" stroke-linecap="round" />
</g>
		<g transform="matrix(0.13 0 0 -0.13 -105.94 -11.66)"  >
<path style="stroke: none; stroke-width: 1; stroke-dasharray: none; stroke-linecap: butt; stroke-dashoffset: 0; stroke-linejoin: miter; stroke-miterlimit: 4; fill: rgb(0,0,0); fill-rule: nonzero; opacity: 1;" vector-effect="non-scaling-stroke"  transform=" translate(-705.56, -604.64)" d="M 680 628 C 652 598 655 589 690 597 C 714 601 720 599 720 586 C 720 576 716 571 711 575 C 706 578 699 576 695 570 C 691 564 701 560 719 560 C 745 560 750 564 750 584 C 750 597 743 610 735 614 C 727 617 720 626 720 635 C 720 656 704 654 680 628 z" stroke-linecap="round" />
</g>
		<g transform="matrix(0.13 0 0 -0.13 153.12 -1.7)"  >
<path style="stroke: none; stroke-width: 1; stroke-dasharray: none; stroke-linecap: butt; stroke-dashoffset: 0; stroke-linejoin: miter; stroke-miterlimit: 4; fill: rgb(0,0,0); fill-rule: nonzero; opacity: 1;" vector-effect="non-scaling-stroke"  transform=" translate(-2648.51, -529.91)" d="M 2627 611 C 2634 584 2593 577 2569 601 C 2559 611 2550 616 2550 611 C 2550 605 2555 598 2561 595 C 2568 590 2566 583 2556 572 C 2548 562 2526 525 2507 488 C 2474 425 2473 422 2496 438 C 2509 447 2520 464 2520 475 C 2520 507 2549 541 2594 561 C 2646 585 2677 585 2715 562 C 2752 539 2807 527 2815 541 C 2819 546 2816 549 2808 548 C 2801 546 2795 554 2795 565 C 2794 602 2779 630 2759 630 C 2748 630 2742 626 2745 620 C 2748 615 2757 610 2765 610 C 2782 610 2793 579 2781 567 C 2770 556 2731 571 2698 598 C 2684 610 2677 610 2665 600 C 2653 590 2650 590 2650 603 C 2650 611 2644 620 2636 623 C 2627 627 2624 623 2627 611 z" stroke-linecap="round" />
</g>
		<g transform="matrix(0.13 0 0 -0.13 -64.13 -10.65)"  >
<path style="stroke: none; stroke-width: 1; stroke-dasharray: none; stroke-linecap: butt; stroke-dashoffset: 0; stroke-linejoin: miter; stroke-miterlimit: 4; fill: rgb(0,0,0); fill-rule: nonzero; opacity: 1;" vector-effect="non-scaling-stroke"  transform=" translate(-1019.19, -597.05)" d="M 980 617 C 980 612 985 600 990 589 C 999 573 1005 572 1021 580 C 1032 586 1046 588 1052 584 C 1058 580 1060 581 1057 587 C 1053 593 1039 598 1024 598 C 1010 598 994 604 989 611 C 984 619 980 621 980 617 z" stroke-linecap="round" />
</g>
		<g transform="matrix(0.13 0 0 -0.13 -55.74 -8.92)"  >
<path style="stroke: none; stroke-width: 1; stroke-dasharray: none; stroke-linecap: butt; stroke-dashoffset: 0; stroke-linejoin: miter; stroke-miterlimit: 4; fill: rgb(0,0,0); fill-rule: nonzero; opacity: 1;" vector-effect="non-scaling-stroke"  transform=" translate(-1082.05, -584.05)" d="M 1070 586 C 1070 549 1089 535 1092 570 C 1092 581 1093 595 1094 602 C 1095 608 1089 615 1083 618 C 1074 620 1070 610 1070 586 z" stroke-linecap="round" />
</g>
		<g transform="matrix(0.13 0 0 -0.13 95.93 10.79)"  >
<path style="stroke: none; stroke-width: 1; stroke-dasharray: none; stroke-linecap: butt; stroke-dashoffset: 0; stroke-linejoin: miter; stroke-miterlimit: 4; fill: rgb(0,0,0); fill-rule: nonzero; opacity: 1;" vector-effect="non-scaling-stroke"  transform=" translate(-2219.62, -436.27)" d="M 2191 606 C 2191 595 2202 573 2217 558 C 2242 532 2243 529 2227 513 C 2213 499 2207 498 2186 510 C 2154 526 2142 555 2169 547 C 2183 544 2186 547 2182 562 C 2178 580 2176 580 2159 564 C 2148 555 2140 541 2140 533 C 2140 526 2135 520 2129 520 C 2123 520 2120 529 2123 540 C 2126 551 2124 560 2119 560 C 2114 560 2110 551 2110 541 C 2110 530 2102 519 2092 515 C 2073 510 2003 430 2016 430 C 2019 430 2036 445 2054 464 C 2085 499 2140 522 2140 501 C 2140 495 2133 490 2125 490 C 2117 490 2110 485 2110 479 C 2110 473 2103 470 2095 473 C 2087 477 2078 475 2075 471 C 2073 466 2084 460 2100 456 C 2129 451 2130 449 2126 405 C 2123 378 2125 360 2132 360 C 2137 360 2140 354 2137 346 C 2134 339 2137 327 2143 321 C 2152 311 2149 310 2128 315 C 2110 320 2100 318 2100 311 C 2100 305 2106 301 2113 303 C 2119 304 2124 297 2122 288 C 2118 264 2164 254 2216 268 C 2251 277 2264 277 2290 264 C 2331 243 2365 253 2384 290 C 2392 307 2395 320 2390 320 C 2380 320 2359 294 2365 289 C 2367 286 2353 283 2333 282 C 2304 280 2299 282 2304 295 C 2309 308 2305 310 2288 304 C 2269 298 2267 300 2276 311 C 2281 319 2285 335 2284 348 C 2283 361 2290 375 2301 380 C 2323 392 2331 381 2325 348 C 2321 329 2325 321 2339 317 C 2353 314 2357 316 2353 328 C 2349 336 2353 348 2361 354 C 2382 370 2380 425 2358 439 C 2348 445 2340 446 2340 441 C 2340 435 2345 428 2350 425 C 2365 416 2362 380 2346 380 C 2338 380 2330 386 2327 393 C 2324 402 2318 402 2301 392 C 2272 375 2242 386 2234 416 C 2231 429 2224 440 2219 440 C 2214 440 2213 447 2217 456 C 2222 471 2216 472 2165 468 C 2115 464 2109 465 2125 477 C 2149 494 2188 494 2222 476 C 2252 460 2272 472 2243 488 C 2229 496 2230 500 2256 513 C 2291 531 2324 520 2302 498 C 2293 489 2290 489 2290 498 C 2290 505 2286 510 2280 510 C 2275 510 2270 503 2270 494 C 2270 485 2278 480 2288 481 C 2329 485 2350 478 2381 453 C 2409 429 2412 428 2401 447 C 2395 459 2376 477 2360 487 C 2326 507 2323 515 2347 524 C 2357 528 2374 521 2394 503 C 2411 488 2419 482 2412 491 C 2406 500 2403 510 2407 513 C 2410 517 2406 520 2397 520 C 2388 520 2380 525 2380 531 C 2380 537 2389 540 2399 537 C 2413 534 2419 539 2423 556 C 2429 590 2421 593 2389 566 C 2374 553 2351 544 2338 545 C 2325 546 2299 548 2279 549 C 2240 550 2205 574 2197 605 C 2192 624 2192 624 2191 606 z M 2164 444 C 2173 441 2180 432 2180 425 C 2180 406 2146 414 2142 433 C 2138 452 2141 453 2164 444 z M 2216 396 C 2223 388 2235 380 2242 378 C 2262 371 2252 317 2228 298 C 2212 286 2201 284 2187 291 C 2163 304 2146 349 2160 365 C 2165 371 2167 380 2163 384 C 2156 391 2177 410 2193 410 C 2198 410 2208 404 2216 396 z" stroke-linecap="round" />
</g>
		<g transform="matrix(0.13 0 0 -0.13 -173.94 -3.96)"  >
<path style="stroke: none; stroke-width: 1; stroke-dasharray: none; stroke-linecap: butt; stroke-dashoffset: 0; stroke-linejoin: miter; stroke-miterlimit: 4; fill: rgb(0,0,0); fill-rule: nonzero; opacity: 1;" vector-effect="non-scaling-stroke"  transform=" translate(-195.56, -546.87)" d="M 228 580 C 211 560 206 550 216 550 C 224 550 230 546 230 541 C 230 524 186 500 156 500 C 134 500 129 497 137 489 C 153 473 217 496 235 524 C 247 541 263 610 256 610 C 255 610 243 597 228 580 z" stroke-linecap="round" />
</g>
		<g transform="matrix(0.13 0 0 -0.13 -104.71 15.53)"  >
<path style="stroke: none; stroke-width: 1; stroke-dasharray: none; stroke-linecap: butt; stroke-dashoffset: 0; stroke-linejoin: miter; stroke-miterlimit: 4; fill: rgb(0,0,0); fill-rule: nonzero; opacity: 1;" vector-effect="non-scaling-stroke"  transform=" translate(-714.82, -400.67)" d="M 620 553 C 611 521 606 471 608 443 C 612 396 614 391 630 400 C 644 407 650 406 654 393 C 661 376 645 360 620 360 C 608 360 609 357 622 343 C 638 328 640 328 659 351 L 678 375 L 685 347 C 691 325 688 313 672 297 L 651 276 L 640 301 C 631 322 630 320 634 285 C 641 234 670 196 704 192 C 758 185 801 259 760 287 C 749 295 740 309 740 318 C 739 334 738 334 726 318 C 709 295 700 305 700 346 C 700 365 691 396 680 416 C 657 455 665 480 700 480 C 713 480 719 469 724 435 C 728 410 729 386 726 381 C 723 376 727 367 735 360 C 747 350 750 351 750 364 C 750 373 757 380 765 380 C 773 380 780 376 780 371 C 780 366 791 371 804 383 C 826 402 827 406 812 411 C 791 419 768 411 776 399 C 779 394 777 390 771 390 C 760 390 746 409 745 425 C 744 441 764 450 772 437 C 777 430 780 434 780 449 C 780 466 776 471 765 466 C 747 460 713 490 708 516 C 705 533 703 532 683 511 C 671 498 657 491 652 494 C 646 498 644 484 648 458 C 652 422 651 418 639 429 C 617 450 619 508 642 516 C 652 519 660 525 660 530 C 660 535 652 536 643 533 C 627 527 626 528 640 545 C 648 556 650 561 643 556 C 633 551 632 557 636 580 C 647 631 635 613 620 553 z M 740 266 C 740 253 746 240 752 238 C 760 235 754 226 738 216 C 717 202 707 201 691 210 C 679 216 670 226 670 232 C 670 241 673 241 682 232 C 696 218 726 216 734 229 C 738 234 731 236 719 233 C 704 229 697 233 693 249 C 689 266 685 268 674 259 C 666 253 660 252 660 257 C 660 275 684 290 712 290 C 735 290 740 286 740 266 z" stroke-linecap="round" />
</g>
		<g transform="matrix(0.13 0 0 -0.13 -49.12 -8.34)"  >
<path style="stroke: none; stroke-width: 1; stroke-dasharray: none; stroke-linecap: butt; stroke-dashoffset: 0; stroke-linejoin: miter; stroke-miterlimit: 4; fill: rgb(0,0,0); fill-rule: nonzero; opacity: 1;" vector-effect="non-scaling-stroke"  transform=" translate(-1131.71, -579.7)" d="M 1128 600 C 1140 595 1150 586 1150 581 C 1150 565 1129 557 1117 569 C 1109 577 1110 580 1120 580 C 1127 580 1131 583 1127 586 C 1117 597 1101 580 1107 565 C 1114 545 1149 546 1156 565 C 1164 584 1143 610 1121 609 C 1110 609 1112 606 1128 600 z" stroke-linecap="round" />
</g>
		<g transform="matrix(0.13 0 0 -0.13 -47.95 3.63)"  >
<path style="stroke: none; stroke-width: 1; stroke-dasharray: none; stroke-linecap: butt; stroke-dashoffset: 0; stroke-linejoin: miter; stroke-miterlimit: 4; fill: rgb(0,0,0); fill-rule: nonzero; opacity: 1;" vector-effect="non-scaling-stroke"  transform=" translate(-1140.49, -489.98)" d="M 1219 577 C 1235 557 1234 555 1203 546 C 1188 541 1180 543 1180 551 C 1180 559 1174 557 1162 547 C 1141 528 1114 525 1105 540 C 1102 545 1093 547 1086 544 C 1078 541 1069 543 1065 549 C 1061 557 1053 557 1039 550 C 1028 544 1016 541 1012 544 C 999 552 930 449 931 421 L 932 395 L 940 422 C 944 437 959 463 972 479 C 992 505 1002 509 1046 509 C 1085 510 1101 505 1115 490 C 1133 471 1133 471 1146 489 C 1180 538 1267 540 1314 493 C 1342 465 1349 472 1325 504 C 1305 531 1306 540 1330 540 C 1341 540 1350 547 1350 555 C 1350 573 1348 573 1315 558 C 1293 548 1283 550 1247 570 C 1216 588 1209 589 1219 577 z" stroke-linecap="round" />
</g>
		<g transform="matrix(0.13 0 0 -0.13 -131.97 -3.04)"  >
<path style="stroke: none; stroke-width: 1; stroke-dasharray: none; stroke-linecap: butt; stroke-dashoffset: 0; stroke-linejoin: miter; stroke-miterlimit: 4; fill: rgb(0,0,0); fill-rule: nonzero; opacity: 1;" vector-effect="non-scaling-stroke"  transform=" translate(-510.38, -539.95)" d="M 493 545 C 490 536 490 527 493 523 C 503 513 530 529 530 545 C 530 565 501 565 493 545 z" stroke-linecap="round" />
</g>
		<g transform="matrix(0.13 0 0 -0.13 152.3 16.33)"  >
<path style="stroke: none; stroke-width: 1; stroke-dasharray: none; stroke-linecap: butt; stroke-dashoffset: 0; stroke-linejoin: miter; stroke-miterlimit: 4; fill: rgb(0,0,0); fill-rule: nonzero; opacity: 1;" vector-effect="non-scaling-stroke"  transform=" translate(-2642.36, -394.68)" d="M 2582 537 C 2555 518 2550 510 2553 483 C 2554 465 2551 449 2545 447 C 2540 445 2543 444 2553 445 C 2563 447 2570 442 2570 433 C 2570 422 2563 419 2544 424 C 2512 432 2490 416 2490 384 C 2490 353 2535 330 2595 330 C 2639 330 2640 331 2640 361 C 2640 387 2642 390 2654 381 C 2662 374 2668 361 2668 352 C 2668 343 2671 327 2675 318 C 2680 306 2677 298 2666 294 C 2644 286 2646 267 2671 244 C 2693 225 2693 225 2682 247 C 2672 265 2675 271 2705 295 C 2733 318 2737 326 2729 341 C 2717 364 2700 366 2700 344 C 2700 321 2683 336 2678 365 C 2673 387 2676 390 2702 390 C 2723 390 2734 397 2742 415 C 2748 428 2761 442 2771 445 C 2797 454 2804 480 2780 480 C 2765 480 2760 487 2760 505 C 2760 519 2756 530 2751 530 C 2747 530 2745 518 2748 504 C 2752 483 2749 479 2734 482 C 2722 484 2715 494 2714 510 C 2714 524 2711 541 2706 548 C 2694 567 2619 561 2582 537 z M 2678 524 C 2695 512 2700 499 2700 466 C 2700 418 2690 405 2645 396 C 2619 391 2612 395 2588 429 C 2562 467 2562 468 2580 498 C 2607 542 2640 551 2678 524 z M 2754 457 C 2749 444 2710 416 2710 426 C 2710 429 2715 440 2720 451 C 2732 472 2762 478 2754 457 z M 2565 399 C 2569 393 2578 391 2586 394 C 2594 397 2600 395 2600 391 C 2600 381 2576 370 2557 370 C 2536 370 2517 387 2524 399 C 2533 413 2557 413 2565 399 z" stroke-linecap="round" />
</g>
		<g transform="matrix(0.13 0 0 -0.13 151.96 6.83)"  >
<path style="stroke: none; stroke-width: 1; stroke-dasharray: none; stroke-linecap: butt; stroke-dashoffset: 0; stroke-linejoin: miter; stroke-miterlimit: 4; fill: rgb(0,0,0); fill-rule: nonzero; opacity: 1;" vector-effect="non-scaling-stroke"  transform=" translate(-2639.87, -465.92)" d="M 2607 513 C 2593 499 2601 489 2622 495 C 2638 501 2642 499 2637 487 C 2634 479 2638 463 2646 452 C 2654 441 2656 429 2651 426 C 2646 423 2640 430 2637 441 C 2633 456 2626 461 2614 456 C 2602 452 2599 454 2604 465 C 2607 473 2605 480 2600 480 C 2584 480 2589 454 2610 430 C 2636 400 2683 409 2678 443 C 2676 455 2670 464 2664 463 C 2659 462 2654 470 2653 480 C 2652 494 2656 496 2673 492 C 2693 487 2693 488 2681 503 C 2668 520 2620 526 2607 513 z" stroke-linecap="round" />
</g>
		<g transform="matrix(0.13 0 0 -0.13 -156.49 18.67)"  >
<path style="stroke: none; stroke-width: 1; stroke-dasharray: none; stroke-linecap: butt; stroke-dashoffset: 0; stroke-linejoin: miter; stroke-miterlimit: 4; fill: rgb(0,0,0); fill-rule: nonzero; opacity: 1;" vector-effect="non-scaling-stroke"  transform=" translate(-326.5, -377.17)" d="M 260 514 C 260 506 256 502 250 505 C 245 508 240 508 240 503 C 240 494 192 470 174 470 C 167 470 158 450 154 425 C 151 400 144 377 139 374 C 134 371 130 364 130 358 C 130 352 139 355 150 365 C 162 376 168 390 165 401 C 161 411 163 428 169 437 C 178 453 180 452 181 430 C 182 416 182 398 181 389 C 179 372 228 334 238 345 C 242 348 239 355 232 359 C 225 363 217 379 214 394 C 211 415 213 420 222 414 C 232 408 233 409 223 422 C 208 439 215 450 242 450 C 270 450 286 393 270 350 C 268 347 268 341 269 336 C 270 331 264 330 255 333 C 238 340 236 332 250 310 C 257 298 262 298 272 308 C 288 324 325 323 339 306 C 346 298 361 295 377 298 C 398 302 409 297 426 274 C 445 252 452 248 462 258 C 471 267 479 265 498 247 L 523 225 L 517 250 C 513 264 510 284 510 294 C 510 312 509 312 490 295 C 471 278 470 278 459 304 C 448 326 450 333 466 353 C 491 381 486 421 457 439 C 437 452 436 452 450 436 C 457 426 464 407 464 394 C 464 369 462 369 377 366 C 329 364 290 367 290 372 C 290 376 298 380 308 380 C 318 380 321 383 314 388 C 297 399 290 440 305 440 C 312 440 317 432 316 423 C 315 410 323 405 345 403 C 393 401 396 400 382 391 C 374 386 382 384 404 384 C 439 385 449 393 431 404 C 423 409 409 470 416 470 C 418 470 430 466 444 460 C 477 448 477 455 443 485 C 421 504 404 509 364 508 C 336 508 304 513 292 519 C 265 534 260 533 260 514 z M 302 488 C 305 481 302 470 296 464 C 283 451 255 474 265 490 C 274 504 297 503 302 488 z M 401 493 C 401 488 403 477 405 468 C 409 446 400 445 374 465 C 358 478 357 481 370 490 C 388 502 400 503 401 493 z M 340 465 C 340 457 349 450 359 450 C 373 450 377 445 373 430 C 370 419 363 410 358 410 C 353 410 346 419 343 430 C 340 441 334 450 329 450 C 324 450 320 457 320 465 C 320 473 325 480 330 480 C 336 480 340 473 340 465 z M 406 313 C 403 309 390 312 378 317 L 355 328 L 380 338 C 399 345 406 344 408 333 C 410 325 409 316 406 313 z" stroke-linecap="round" />
</g>
		<g transform="matrix(0.13 0 0 -0.13 -84.94 12.52)"  >
<path style="stroke: none; stroke-width: 1; stroke-dasharray: none; stroke-linecap: butt; stroke-dashoffset: 0; stroke-linejoin: miter; stroke-miterlimit: 4; fill: rgb(0,0,0); fill-rule: nonzero; opacity: 1;" vector-effect="non-scaling-stroke"  transform=" translate(-863.06, -423.29)" d="M 867 479 C 851 467 831 460 820 463 C 805 467 800 463 800 449 C 800 419 840 430 886 472 C 916 499 926 479 903 440 C 894 424 883 410 880 410 C 877 410 859 396 840 379 L 805 348 L 840 368 C 859 379 888 406 904 429 C 928 462 931 472 920 485 C 904 504 901 504 867 479 z" stroke-linecap="round" />
</g>
		<g transform="matrix(0.13 0 0 -0.13 -34.55 11.71)"  >
<path style="stroke: none; stroke-width: 1; stroke-dasharray: none; stroke-linecap: butt; stroke-dashoffset: 0; stroke-linejoin: miter; stroke-miterlimit: 4; fill: rgb(0,0,0); fill-rule: nonzero; opacity: 1;" vector-effect="non-scaling-stroke"  transform=" translate(-1240.99, -429.37)" d="M 1240 486 C 1240 470 1238 470 1225 480 C 1212 491 1205 490 1183 473 C 1147 447 1141 427 1172 438 C 1203 449 1230 442 1223 424 C 1220 416 1223 410 1228 410 C 1234 410 1245 404 1252 398 C 1275 376 1300 357 1300 362 C 1300 365 1284 383 1265 403 C 1246 423 1230 444 1230 450 C 1230 466 1262 462 1298 440 C 1315 429 1330 423 1330 426 C 1330 437 1301 460 1286 460 C 1278 460 1264 470 1256 482 C 1242 502 1240 502 1240 486 z" stroke-linecap="round" />
</g>
		<g transform="matrix(0.13 0 0 -0.13 -122.28 14.72)"  >
<path style="stroke: none; stroke-width: 1; stroke-dasharray: none; stroke-linecap: butt; stroke-dashoffset: 0; stroke-linejoin: miter; stroke-miterlimit: 4; fill: rgb(0,0,0); fill-rule: nonzero; opacity: 1;" vector-effect="non-scaling-stroke"  transform=" translate(-583.08, -406.76)" d="M 578 452 C 576 437 577 400 581 370 C 587 318 587 319 589 398 C 590 481 586 503 578 452 z" stroke-linecap="round" />
</g>
		<g transform="matrix(0.13 0 0 -0.13 -56.29 12.95)"  >
<path style="stroke: none; stroke-width: 1; stroke-dasharray: none; stroke-linecap: butt; stroke-dashoffset: 0; stroke-linejoin: miter; stroke-miterlimit: 4; fill: rgb(0,0,0); fill-rule: nonzero; opacity: 1;" vector-effect="non-scaling-stroke"  transform=" translate(-1077.95, -420.05)" d="M 1033 459 C 1036 446 1033 418 1025 397 C 1012 359 1012 359 1031 376 C 1041 385 1050 401 1050 410 C 1050 429 1069 450 1087 450 C 1106 450 1120 408 1107 392 C 1099 382 1100 376 1111 369 C 1135 354 1140 359 1140 393 C 1140 431 1109 470 1080 470 C 1070 470 1054 473 1044 477 C 1030 482 1028 479 1033 459 z" stroke-linecap="round" />
</g>
		<g transform="matrix(0.13 0 0 -0.13 105.18 9.98)"  >
<path style="stroke: none; stroke-width: 1; stroke-dasharray: none; stroke-linecap: butt; stroke-dashoffset: 0; stroke-linejoin: miter; stroke-miterlimit: 4; fill: rgb(0,0,0); fill-rule: nonzero; opacity: 1;" vector-effect="non-scaling-stroke"  transform=" translate(-2289.01, -442.33)" d="M 2305 459 C 2309 453 2306 449 2299 451 C 2272 454 2259 450 2265 440 C 2268 435 2266 430 2261 430 C 2255 430 2250 426 2250 421 C 2250 416 2268 421 2290 432 C 2335 455 2336 456 2314 464 C 2305 467 2302 466 2305 459 z" stroke-linecap="round" />
</g>
		<g transform="matrix(0.13 0 0 -0.13 -39.47 30.81)"  >
<path style="stroke: none; stroke-width: 1; stroke-dasharray: none; stroke-linecap: butt; stroke-dashoffset: 0; stroke-linejoin: miter; stroke-miterlimit: 4; fill: rgb(0,0,0); fill-rule: nonzero; opacity: 1;" vector-effect="non-scaling-stroke"  transform=" translate(-1204.08, -286.11)" d="M 979 439 C 948 381 991 291 1074 242 C 1136 204 1175 194 1194 209 C 1202 216 1210 217 1212 213 C 1213 209 1229 198 1245 190 C 1276 174 1290 136 1268 128 C 1261 125 1246 131 1236 141 C 1217 160 1217 160 1236 161 C 1251 161 1250 163 1230 171 C 1216 177 1192 179 1176 176 C 1156 172 1141 175 1128 186 C 1112 201 1110 201 1110 187 C 1110 171 1119 167 1177 155 C 1194 152 1211 142 1214 134 C 1217 125 1224 121 1229 125 C 1234 128 1241 126 1245 120 C 1249 113 1258 114 1272 121 C 1290 130 1292 138 1286 177 C 1281 215 1284 226 1307 257 L 1334 292 L 1347 259 C 1355 238 1358 235 1356 249 C 1350 277 1365 300 1387 300 C 1399 300 1401 292 1396 265 C 1389 228 1404 215 1413 251 C 1417 265 1423 269 1431 264 C 1440 259 1441 262 1437 274 C 1433 284 1430 295 1430 300 C 1430 314 1380 321 1360 310 C 1345 302 1340 302 1340 312 C 1340 319 1332 313 1323 300 C 1314 286 1303 273 1300 270 C 1296 267 1291 257 1287 248 C 1284 238 1273 230 1264 230 C 1254 230 1250 225 1254 214 C 1257 206 1256 202 1250 205 C 1244 208 1240 218 1240 226 C 1240 244 1230 244 1202 224 C 1190 216 1180 213 1180 219 C 1180 225 1190 235 1203 241 C 1215 248 1227 256 1230 259 C 1233 263 1248 270 1263 275 C 1296 287 1340 347 1315 347 C 1307 347 1300 341 1300 334 C 1300 326 1289 313 1276 305 C 1257 292 1247 291 1231 299 C 1215 308 1211 307 1208 289 C 1206 278 1191 260 1174 249 C 1144 231 1141 230 1125 246 C 1109 262 1109 264 1131 281 C 1144 291 1152 301 1149 304 C 1146 307 1133 299 1121 286 C 1101 265 1094 263 1069 272 C 1053 277 1043 286 1046 291 C 1049 296 1047 300 1041 300 C 1036 300 1028 309 1025 321 C 1021 332 1016 339 1013 336 C 1000 323 980 354 980 386 C 980 409 986 424 1000 432 C 1024 447 1026 457 1004 457 C 996 457 985 449 979 439 z" stroke-linecap="round" />
</g>
		<g transform="matrix(0.13 0 0 -0.13 172.39 15.74)"  >
<path style="stroke: none; stroke-width: 1; stroke-dasharray: none; stroke-linecap: butt; stroke-dashoffset: 0; stroke-linejoin: miter; stroke-miterlimit: 4; fill: rgb(0,0,0); fill-rule: nonzero; opacity: 1;" vector-effect="non-scaling-stroke"  transform=" translate(-2793.07, -399.13)" d="M 2812 448 C 2805 441 2800 430 2800 423 C 2800 416 2792 410 2782 410 C 2755 410 2727 373 2739 352 C 2748 337 2749 337 2750 356 C 2750 385 2774 405 2787 388 C 2793 381 2799 369 2801 362 C 2806 345 2850 375 2850 396 C 2850 412 2834 415 2825 400 C 2822 395 2824 390 2830 390 C 2836 390 2838 386 2835 380 C 2826 365 2810 368 2803 386 C 2800 394 2807 411 2819 424 C 2841 448 2834 470 2812 448 z" stroke-linecap="round" />
</g>
		<g transform="matrix(0.13 0 0 -0.13 73.88 20.97)"  >
<path style="stroke: none; stroke-width: 1; stroke-dasharray: none; stroke-linecap: butt; stroke-dashoffset: 0; stroke-linejoin: miter; stroke-miterlimit: 4; fill: rgb(0,0,0); fill-rule: nonzero; opacity: 1;" vector-effect="non-scaling-stroke"  transform=" translate(-2054.25, -359.9)" d="M 2048 434 C 2019 419 2010 390 2034 390 C 2041 390 2053 383 2061 374 C 2080 351 2052 335 2028 357 C 2012 371 2010 370 2005 347 C 1996 314 2014 282 2045 274 C 2078 266 2095 277 2078 297 C 2068 309 2069 314 2080 324 C 2098 337 2102 370 2087 370 C 2082 370 2085 379 2094 389 C 2108 404 2109 413 2100 429 C 2087 454 2084 454 2048 434 z M 2050 314 C 2050 298 2041 296 2021 309 C 2014 314 2010 323 2014 328 C 2023 343 2050 332 2050 314 z" stroke-linecap="round" />
</g>
		<g transform="matrix(0.13 0 0 -0.13 -41.31 17.58)"  >
<path style="stroke: none; stroke-width: 1; stroke-dasharray: none; stroke-linecap: butt; stroke-dashoffset: 0; stroke-linejoin: miter; stroke-miterlimit: 4; fill: rgb(0,0,0); fill-rule: nonzero; opacity: 1;" vector-effect="non-scaling-stroke"  transform=" translate(-1190.34, -385.31)" d="M 1156 405 C 1160 397 1169 390 1176 390 C 1184 390 1195 380 1200 368 C 1209 345 1209 345 1209 367 C 1210 379 1216 391 1223 393 C 1235 399 1206 404 1181 401 C 1174 399 1171 403 1175 409 C 1178 415 1174 420 1166 420 C 1156 420 1153 414 1156 405 z" stroke-linecap="round" />
</g>
		<g transform="matrix(0.13 0 0 -0.13 136.84 30.7)"  >
<path style="stroke: none; stroke-width: 1; stroke-dasharray: none; stroke-linecap: butt; stroke-dashoffset: 0; stroke-linejoin: miter; stroke-miterlimit: 4; fill: rgb(0,0,0); fill-rule: nonzero; opacity: 1;" vector-effect="non-scaling-stroke"  transform=" translate(-2526.44, -286.94)" d="M 2413 399 C 2413 386 2410 367 2406 358 C 2401 347 2402 340 2409 340 C 2415 340 2419 343 2419 348 C 2415 369 2422 371 2440 355 C 2463 334 2466 302 2446 294 C 2432 289 2428 190 2442 190 C 2449 190 2452 205 2452 230 C 2452 233 2449 245 2445 258 C 2442 270 2443 280 2449 280 C 2454 280 2462 271 2465 260 C 2469 249 2475 242 2480 245 C 2494 254 2530 227 2530 208 C 2530 199 2523 184 2514 176 C 2506 167 2502 160 2507 160 C 2522 160 2540 183 2540 202 C 2540 224 2548 225 2572 203 C 2582 194 2593 190 2598 194 C 2602 198 2597 208 2587 215 C 2563 233 2569 264 2598 268 C 2619 271 2620 269 2615 218 L 2611 165 L 2626 205 C 2634 227 2638 255 2635 268 C 2632 280 2634 290 2640 290 C 2645 290 2650 297 2650 305 C 2650 324 2641 324 2616 305 C 2606 297 2593 293 2587 297 C 2582 300 2562 306 2543 310 C 2515 317 2511 316 2521 304 C 2527 296 2539 290 2546 290 C 2561 290 2564 262 2551 242 C 2545 232 2541 232 2530 244 C 2523 253 2514 257 2509 254 C 2504 251 2500 254 2500 259 C 2500 265 2494 270 2486 270 C 2467 270 2458 284 2466 304 C 2471 317 2475 318 2486 309 C 2503 295 2504 301 2488 335 C 2482 349 2471 360 2463 360 C 2456 360 2441 374 2431 391 C 2413 420 2412 420 2413 399 z" stroke-linecap="round" />
</g>
		<g transform="matrix(0.13 0 0 -0.13 9.1 21.38)"  >
<path style="stroke: none; stroke-width: 1; stroke-dasharray: none; stroke-linecap: butt; stroke-dashoffset: 0; stroke-linejoin: miter; stroke-miterlimit: 4; fill: rgb(0,0,0); fill-rule: nonzero; opacity: 1;" vector-effect="non-scaling-stroke"  transform=" translate(-1568.41, -356.83)" d="M 1474 402 C 1447 399 1443 395 1443 369 C 1443 353 1445 340 1447 340 C 1452 340 1503 373 1510 380 C 1513 383 1527 386 1543 388 C 1566 390 1570 387 1570 367 C 1570 330 1609 323 1635 355 C 1647 369 1659 380 1663 380 C 1677 380 1670 357 1653 344 C 1643 337 1639 328 1643 324 C 1647 319 1655 322 1660 330 C 1668 343 1670 342 1670 328 C 1670 318 1674 310 1679 310 C 1693 310 1698 333 1690 355 C 1686 366 1686 380 1691 386 C 1698 394 1681 398 1633 399 C 1595 400 1552 402 1535 403 C 1519 404 1491 404 1474 402 z" stroke-linecap="round" />
</g>
		<g transform="matrix(0.13 0 0 -0.13 32.36 21.57)"  >
<path style="stroke: none; stroke-width: 1; stroke-dasharray: none; stroke-linecap: butt; stroke-dashoffset: 0; stroke-linejoin: miter; stroke-miterlimit: 4; fill: rgb(0,0,0); fill-rule: nonzero; opacity: 1;" vector-effect="non-scaling-stroke"  transform=" translate(-1742.87, -355.37)" d="M 1721 374 C 1726 359 1728 338 1725 326 C 1720 306 1720 306 1732 324 C 1739 335 1753 351 1762 361 C 1778 378 1777 379 1748 389 C 1731 395 1716 400 1714 400 C 1712 400 1715 388 1721 374 z" stroke-linecap="round" />
</g>
		<g transform="matrix(0.13 0 0 -0.13 -79.35 30.04)"  >
<path style="stroke: none; stroke-width: 1; stroke-dasharray: none; stroke-linecap: butt; stroke-dashoffset: 0; stroke-linejoin: miter; stroke-miterlimit: 4; fill: rgb(0,0,0); fill-rule: nonzero; opacity: 1;" vector-effect="non-scaling-stroke"  transform=" translate(-905, -291.87)" d="M 930 361 C 930 331 928 328 906 334 C 888 338 873 333 851 314 C 834 300 817 291 812 294 C 807 297 805 286 808 271 C 810 255 807 239 801 236 C 795 232 790 219 790 207 C 791 189 793 191 805 218 C 818 247 821 249 839 238 C 850 232 862 218 867 208 C 873 195 879 193 890 200 C 903 209 903 211 890 221 C 879 229 878 233 888 237 C 894 239 900 246 900 252 C 900 258 894 258 885 250 C 866 234 848 241 844 268 C 841 281 849 295 862 305 C 896 328 913 324 908 295 C 905 280 909 265 918 258 C 931 247 933 248 927 263 C 916 292 945 283 984 245 C 1004 226 1020 215 1020 220 C 1020 225 1012 235 1002 242 C 992 249 981 263 977 273 C 974 282 964 290 956 290 C 946 290 942 302 942 336 C 942 361 939 384 936 388 C 933 391 930 379 930 361 z" stroke-linecap="round" />
</g>
		<g transform="matrix(0.13 0 0 -0.13 -54.8 24.98)"  >
<path style="stroke: none; stroke-width: 1; stroke-dasharray: none; stroke-linecap: butt; stroke-dashoffset: 0; stroke-linejoin: miter; stroke-miterlimit: 4; fill: rgb(0,0,0); fill-rule: nonzero; opacity: 1;" vector-effect="non-scaling-stroke"  transform=" translate(-1089.17, -329.85)" d="M 1070 350 C 1070 340 1062 326 1053 321 C 1037 312 1037 311 1052 310 C 1061 310 1071 304 1074 298 C 1079 288 1081 288 1086 297 C 1089 304 1097 307 1105 304 C 1112 301 1124 308 1130 321 C 1141 340 1140 342 1126 337 C 1116 333 1110 336 1110 344 C 1110 352 1103 361 1094 364 C 1071 373 1070 372 1070 350 z" stroke-linecap="round" />
</g>
		<g transform="matrix(0.13 0 0 -0.13 -33.33 23.9)"  >
<path style="stroke: none; stroke-width: 1; stroke-dasharray: none; stroke-linecap: butt; stroke-dashoffset: 0; stroke-linejoin: miter; stroke-miterlimit: 4; fill: rgb(0,0,0); fill-rule: nonzero; opacity: 1;" vector-effect="non-scaling-stroke"  transform=" translate(-1250.19, -337.9)" d="M 1231 357 C 1217 343 1217 323 1230 315 C 1247 304 1280 320 1280 340 C 1280 361 1247 373 1231 357 z" stroke-linecap="round" />
</g>
		<g transform="matrix(0.13 0 0 -0.13 178.49 24.01)"  >
<path style="stroke: none; stroke-width: 1; stroke-dasharray: none; stroke-linecap: butt; stroke-dashoffset: 0; stroke-linejoin: miter; stroke-miterlimit: 4; fill: rgb(0,0,0); fill-rule: nonzero; opacity: 1;" vector-effect="non-scaling-stroke"  transform=" translate(-2838.78, -337.11)" d="M 2852 358 C 2845 351 2840 340 2840 332 C 2840 324 2834 320 2825 324 C 2816 327 2810 324 2810 314 C 2810 303 2814 302 2829 309 C 2839 315 2851 316 2855 312 C 2860 308 2860 311 2856 317 C 2852 324 2854 339 2860 350 C 2872 373 2870 376 2852 358 z" stroke-linecap="round" />
</g>
		<g transform="matrix(0.13 0 0 -0.13 14.28 32.9)"  >
<path style="stroke: none; stroke-width: 1; stroke-dasharray: none; stroke-linecap: butt; stroke-dashoffset: 0; stroke-linejoin: miter; stroke-miterlimit: 4; fill: rgb(0,0,0); fill-rule: nonzero; opacity: 1;" vector-effect="non-scaling-stroke"  transform=" translate(-1607.26, -270.45)" d="M 1530 343 C 1530 330 1528 328 1522 338 C 1509 357 1481 342 1487 319 C 1491 305 1498 302 1516 306 C 1539 312 1540 310 1540 259 C 1539 216 1537 209 1529 223 C 1523 234 1520 253 1523 266 C 1526 282 1523 290 1513 290 C 1503 290 1501 283 1504 270 C 1507 259 1513 241 1516 230 C 1519 217 1517 210 1507 210 C 1499 210 1492 216 1493 223 C 1494 254 1489 267 1476 267 C 1463 267 1463 262 1476 231 C 1484 212 1496 192 1502 188 C 1517 180 1673 178 1718 186 C 1754 193 1756 201 1734 245 L 1720 275 L 1724 238 C 1727 217 1725 200 1719 200 C 1714 200 1710 216 1710 236 C 1710 265 1707 271 1694 266 C 1681 261 1679 264 1683 280 C 1689 303 1669 307 1651 286 C 1642 276 1643 271 1653 267 C 1669 261 1673 210 1659 210 C 1654 210 1650 218 1650 229 C 1650 259 1625 274 1609 254 C 1597 239 1595 240 1589 261 C 1586 274 1578 284 1572 283 C 1565 281 1560 285 1560 290 C 1560 296 1567 300 1576 300 C 1585 300 1590 306 1587 313 C 1585 319 1575 325 1564 325 C 1552 325 1546 331 1548 343 C 1550 352 1546 360 1540 360 C 1535 360 1530 352 1530 343 z M 1580 234 C 1580 226 1573 220 1565 220 C 1555 220 1550 230 1550 246 C 1550 268 1552 271 1565 260 C 1573 253 1580 241 1580 234 z" stroke-linecap="round" />
</g>
		<g transform="matrix(0.13 0 0 -0.13 -174.86 27.81)"  >
<path style="stroke: none; stroke-width: 1; stroke-dasharray: none; stroke-linecap: butt; stroke-dashoffset: 0; stroke-linejoin: miter; stroke-miterlimit: 4; fill: rgb(0,0,0); fill-rule: nonzero; opacity: 1;" vector-effect="non-scaling-stroke"  transform=" translate(-188.67, -308.58)" d="M 155 340 C 137 333 138 332 165 325 C 217 313 220 311 220 288 C 221 268 222 267 231 282 C 241 301 228 340 210 340 C 206 340 196 342 188 344 C 181 347 166 345 155 340 z" stroke-linecap="round" />
</g>
		<g transform="matrix(0.13 0 0 -0.13 43.25 29.24)"  >
<path style="stroke: none; stroke-width: 1; stroke-dasharray: none; stroke-linecap: butt; stroke-dashoffset: 0; stroke-linejoin: miter; stroke-miterlimit: 4; fill: rgb(0,0,0); fill-rule: nonzero; opacity: 1;" vector-effect="non-scaling-stroke"  transform=" translate(-1824.52, -297.86)" d="M 1752 323 C 1733 296 1734 278 1756 252 C 1757 250 1773 259 1790 272 C 1813 288 1835 295 1870 295 C 1930 295 1923 304 1851 319 C 1821 325 1791 335 1784 341 C 1775 348 1766 343 1752 323 z" stroke-linecap="round" />
</g>
		<g transform="matrix(0.13 0 0 -0.13 16.57 29.25)"  >
<path style="stroke: none; stroke-width: 1; stroke-dasharray: none; stroke-linecap: butt; stroke-dashoffset: 0; stroke-linejoin: miter; stroke-miterlimit: 4; fill: rgb(0,0,0); fill-rule: nonzero; opacity: 1;" vector-effect="non-scaling-stroke"  transform=" translate(-1624.39, -297.82)" d="M 1605 301 C 1608 280 1636 275 1643 293 C 1647 303 1641 309 1625 312 C 1608 316 1603 313 1605 301 z" stroke-linecap="round" />
</g>
		<g transform="matrix(0.13 0 0 -0.13 165.59 39.09)"  >
<path style="stroke: none; stroke-width: 1; stroke-dasharray: none; stroke-linecap: butt; stroke-dashoffset: 0; stroke-linejoin: miter; stroke-miterlimit: 4; fill: rgb(0,0,0); fill-rule: nonzero; opacity: 1;" vector-effect="non-scaling-stroke"  transform=" translate(-2742.05, -223.99)" d="M 2734 297 C 2731 288 2719 278 2708 274 C 2690 269 2690 267 2705 250 C 2714 241 2720 229 2718 224 C 2713 209 2761 140 2776 140 C 2784 140 2790 145 2790 150 C 2790 156 2784 160 2778 160 C 2769 160 2770 164 2780 170 C 2793 178 2792 180 2778 180 C 2768 180 2760 185 2760 190 C 2760 196 2767 200 2775 200 C 2783 200 2790 207 2790 215 C 2790 234 2783 234 2762 214 C 2747 198 2745 199 2734 226 C 2724 250 2724 259 2737 278 C 2745 291 2749 304 2746 307 C 2743 310 2738 306 2734 297 z" stroke-linecap="round" />
</g>
		<g transform="matrix(0.13 0 0 -0.13 -153.85 38.96)"  >
<path style="stroke: none; stroke-width: 1; stroke-dasharray: none; stroke-linecap: butt; stroke-dashoffset: 0; stroke-linejoin: miter; stroke-miterlimit: 4; fill: rgb(0,0,0); fill-rule: nonzero; opacity: 1;" vector-effect="non-scaling-stroke"  transform=" translate(-346.26, -225)" d="M 284 285 C 280 277 272 270 265 270 C 256 270 255 258 264 218 C 269 189 276 173 278 183 C 280 192 291 200 303 201 L 325 201 L 303 212 C 290 218 280 227 280 232 C 280 244 288 242 316 224 L 341 207 L 308 179 C 291 163 281 150 288 150 C 294 150 301 154 304 159 C 307 164 323 166 340 164 C 357 162 370 165 370 171 C 370 179 375 178 385 170 C 397 160 400 160 400 172 C 400 180 388 190 373 196 L 346 205 L 374 223 C 405 244 424 237 395 216 C 378 204 378 203 399 197 C 413 194 420 196 420 206 C 420 214 425 220 430 220 C 443 220 428 250 404 275 C 389 290 386 290 369 274 C 355 261 347 259 339 267 C 333 273 321 276 312 272 C 301 268 298 271 303 283 C 306 292 305 300 299 300 C 294 300 287 293 284 285 z" stroke-linecap="round" />
</g>
		<g transform="matrix(0.13 0 0 -0.13 50.41 41.38)"  >
<path style="stroke: none; stroke-width: 1; stroke-dasharray: none; stroke-linecap: butt; stroke-dashoffset: 0; stroke-linejoin: miter; stroke-miterlimit: 4; fill: rgb(0,0,0); fill-rule: nonzero; opacity: 1;" vector-effect="non-scaling-stroke"  transform=" translate(-1878.24, -206.82)" d="M 1867 270 C 1870 259 1867 250 1861 250 C 1855 250 1850 257 1850 265 C 1850 273 1846 280 1841 280 C 1824 280 1818 260 1826 227 C 1832 197 1833 196 1841 218 C 1854 252 1872 245 1868 208 C 1866 190 1861 177 1856 178 C 1846 182 1830 161 1830 145 C 1830 140 1834 141 1839 149 C 1844 156 1853 159 1859 155 C 1868 150 1868 145 1859 134 C 1849 122 1851 121 1871 128 C 1884 133 1897 143 1901 151 C 1904 159 1915 179 1924 197 C 1949 245 1925 290 1875 290 C 1867 290 1864 283 1867 270 z M 1920 232 C 1920 222 1913 205 1905 194 C 1891 176 1891 177 1890 206 C 1890 223 1893 240 1897 243 C 1909 256 1920 250 1920 232 z" stroke-linecap="round" />
</g>
		<g transform="matrix(0.13 0 0 -0.13 -180.8 40)"  >
<path style="stroke: none; stroke-width: 1; stroke-dasharray: none; stroke-linecap: butt; stroke-dashoffset: 0; stroke-linejoin: miter; stroke-miterlimit: 4; fill: rgb(0,0,0); fill-rule: nonzero; opacity: 1;" vector-effect="non-scaling-stroke"  transform=" translate(-144.15, -217.21)" d="M 160 268 C 156 256 153 241 151 233 C 150 228 142 234 133 245 C 119 263 118 263 124 247 C 127 237 130 212 130 192 C 130 166 133 159 139 169 C 144 177 146 189 143 197 C 140 205 145 219 155 230 C 164 240 170 255 167 262 C 164 269 161 272 160 268 z" stroke-linecap="round" />
</g>
		<g transform="matrix(0.13 0 0 -0.13 16.46 42.96)"  >
<path style="stroke: none; stroke-width: 1; stroke-dasharray: none; stroke-linecap: butt; stroke-dashoffset: 0; stroke-linejoin: miter; stroke-miterlimit: 4; fill: rgb(0,0,0); fill-rule: nonzero; opacity: 1;" vector-effect="non-scaling-stroke"  transform=" translate(-1623.61, -194.99)" d="M 1787 236 C 1778 215 1770 194 1770 189 C 1770 174 1717 166 1610 166 C 1490 166 1451 181 1449 229 C 1449 243 1446 249 1443 242 C 1432 215 1451 183 1495 151 C 1536 121 1546 122 1541 153 C 1540 158 1544 159 1550 155 C 1555 152 1560 143 1560 136 C 1560 127 1578 125 1628 128 C 1731 135 1760 148 1787 200 C 1800 224 1809 251 1807 260 C 1805 269 1797 259 1787 236 z" stroke-linecap="round" />
</g>
		<g transform="matrix(0.13 0 0 -0.13 78.48 40.62)"  >
<path style="stroke: none; stroke-width: 1; stroke-dasharray: none; stroke-linecap: butt; stroke-dashoffset: 0; stroke-linejoin: miter; stroke-miterlimit: 4; fill: rgb(0,0,0); fill-rule: nonzero; opacity: 1;" vector-effect="non-scaling-stroke"  transform=" translate(-2088.75, -212.53)" d="M 2078 263 C 2068 260 2060 255 2060 250 C 2060 246 2070 244 2083 248 C 2102 253 2103 251 2092 238 C 2081 224 2082 221 2097 217 C 2114 213 2114 212 2098 211 C 2088 211 2080 203 2080 195 C 2080 186 2086 183 2095 186 C 2106 191 2108 188 2103 174 C 2099 164 2101 159 2107 163 C 2121 172 2121 235 2107 252 C 2100 260 2087 265 2078 263 z" stroke-linecap="round" />
</g>
		<g transform="matrix(0.13 0 0 -0.13 96.19 38.22)"  >
<path style="stroke: none; stroke-width: 1; stroke-dasharray: none; stroke-linecap: butt; stroke-dashoffset: 0; stroke-linejoin: miter; stroke-miterlimit: 4; fill: rgb(0,0,0); fill-rule: nonzero; opacity: 1;" vector-effect="non-scaling-stroke"  transform=" translate(-2221.57, -230.56)" d="M 2211 251 C 2177 242 2174 223 2205 218 C 2222 214 2230 217 2230 226 C 2230 234 2234 240 2239 240 C 2244 240 2246 230 2242 218 C 2239 204 2240 199 2248 204 C 2264 214 2263 260 2248 259 C 2241 258 2224 255 2211 251 z" stroke-linecap="round" />
</g>
		<g transform="matrix(0.13 0 0 -0.13 86.65 39.29)"  >
<path style="stroke: none; stroke-width: 1; stroke-dasharray: none; stroke-linecap: butt; stroke-dashoffset: 0; stroke-linejoin: miter; stroke-miterlimit: 4; fill: rgb(0,0,0); fill-rule: nonzero; opacity: 1;" vector-effect="non-scaling-stroke"  transform=" translate(-2150.01, -222.5)" d="M 2131 228 C 2131 206 2132 206 2140 225 C 2148 244 2148 244 2158 220 L 2169 195 L 2169 223 C 2170 244 2165 250 2150 250 C 2136 250 2130 244 2131 228 z" stroke-linecap="round" />
</g>
		<g transform="matrix(0.13 0 0 -0.13 -135.01 42.62)"  >
<path style="stroke: none; stroke-width: 1; stroke-dasharray: none; stroke-linecap: butt; stroke-dashoffset: 0; stroke-linejoin: miter; stroke-miterlimit: 4; fill: rgb(0,0,0); fill-rule: nonzero; opacity: 1;" vector-effect="non-scaling-stroke"  transform=" translate(-487.57, -197.51)" d="M 456 231 C 453 226 458 220 468 218 C 478 215 494 198 503 179 C 512 160 520 150 520 157 C 520 164 512 185 503 205 C 487 239 467 250 456 231 z" stroke-linecap="round" />
</g>
		<g transform="matrix(0.13 0 0 -0.13 -114.52 42.92)"  >
<path style="stroke: none; stroke-width: 1; stroke-dasharray: none; stroke-linecap: butt; stroke-dashoffset: 0; stroke-linejoin: miter; stroke-miterlimit: 4; fill: rgb(0,0,0); fill-rule: nonzero; opacity: 1;" vector-effect="non-scaling-stroke"  transform=" translate(-641.26, -195.27)" d="M 623 215 C 647 169 669 142 669 160 C 669 168 655 191 639 210 C 609 244 608 244 623 215 z" stroke-linecap="round" />
</g>
		<g transform="matrix(0.13 0 0 -0.13 110.51 41.39)"  >
<path style="stroke: none; stroke-width: 1; stroke-dasharray: none; stroke-linecap: butt; stroke-dashoffset: 0; stroke-linejoin: miter; stroke-miterlimit: 4; fill: rgb(0,0,0); fill-rule: nonzero; opacity: 1;" vector-effect="non-scaling-stroke"  transform=" translate(-2328.98, -206.72)" d="M 2287 226 C 2273 215 2272 210 2281 204 C 2288 200 2296 202 2298 208 C 2303 224 2330 223 2330 208 C 2331 200 2336 202 2344 213 C 2362 236 2373 235 2360 210 C 2354 199 2340 190 2330 190 C 2319 190 2310 186 2310 181 C 2310 166 2351 177 2370 197 C 2379 207 2385 221 2382 228 C 2377 244 2310 243 2287 226 z" stroke-linecap="round" />
</g>
		<g transform="matrix(0.13 0 0 -0.13 178.85 43.51)"  >
<path style="stroke: none; stroke-width: 1; stroke-dasharray: none; stroke-linecap: butt; stroke-dashoffset: 0; stroke-linejoin: miter; stroke-miterlimit: 4; fill: rgb(0,0,0); fill-rule: nonzero; opacity: 1;" vector-effect="non-scaling-stroke"  transform=" translate(-2841.5, -190.86)" d="M 2807 220 C 2803 203 2807 200 2838 199 C 2872 197 2873 197 2845 193 C 2802 187 2786 167 2827 172 C 2845 173 2859 170 2859 165 C 2859 159 2852 156 2844 158 C 2836 160 2830 157 2830 151 C 2830 141 2849 142 2868 153 C 2887 165 2882 205 2860 225 C 2841 242 2840 242 2840 224 C 2839 206 2839 206 2826 223 C 2813 240 2812 239 2807 220 z" stroke-linecap="round" />
</g>
		<g transform="matrix(0.13 0 0 -0.13 158.4 43.88)"  >
<path style="stroke: none; stroke-width: 1; stroke-dasharray: none; stroke-linecap: butt; stroke-dashoffset: 0; stroke-linejoin: miter; stroke-miterlimit: 4; fill: rgb(0,0,0); fill-rule: nonzero; opacity: 1;" vector-effect="non-scaling-stroke"  transform=" translate(-2688.13, -188.09)" d="M 2651 218 C 2651 211 2670 189 2692 170 C 2725 142 2731 139 2721 158 C 2714 171 2703 183 2695 186 C 2688 189 2680 200 2677 211 C 2671 232 2649 238 2651 218 z" stroke-linecap="round" />
</g>
		<g transform="matrix(0.13 0 0 -0.13 -16.67 45.32)"  >
<path style="stroke: none; stroke-width: 1; stroke-dasharray: none; stroke-linecap: butt; stroke-dashoffset: 0; stroke-linejoin: miter; stroke-miterlimit: 4; fill: rgb(0,0,0); fill-rule: nonzero; opacity: 1;" vector-effect="non-scaling-stroke"  transform=" translate(-1375.13, -177.31)" d="M 1356 185 C 1352 170 1351 155 1355 152 C 1358 149 1360 154 1360 163 C 1360 183 1386 186 1394 168 C 1397 161 1399 163 1397 173 C 1396 183 1391 190 1386 190 C 1381 189 1374 194 1370 200 C 1365 208 1360 202 1356 185 z" stroke-linecap="round" />
</g>
		<g transform="matrix(0.13 0 0 -0.13 -102.45 46.92)"  >
<path style="stroke: none; stroke-width: 1; stroke-dasharray: none; stroke-linecap: butt; stroke-dashoffset: 0; stroke-linejoin: miter; stroke-miterlimit: 4; fill: rgb(0,0,0); fill-rule: nonzero; opacity: 1;" vector-effect="non-scaling-stroke"  transform=" translate(-731.74, -165.28)" d="M 740 170 C 726 159 706 150 695 149 C 682 149 680 146 689 143 C 709 135 780 161 780 177 C 780 195 770 193 740 170 z" stroke-linecap="round" />
</g>
		<g transform="matrix(0.13 0 0 -0.13 -153.83 50.57)"  >
<path style="stroke: none; stroke-width: 1; stroke-dasharray: none; stroke-linecap: butt; stroke-dashoffset: 0; stroke-linejoin: miter; stroke-miterlimit: 4; fill: rgb(0,0,0); fill-rule: nonzero; opacity: 1;" vector-effect="non-scaling-stroke"  transform=" translate(-346.42, -137.94)" d="M 303 138 C 301 133 319 130 344 130 C 369 130 390 134 390 138 C 390 149 310 148 303 138 z" stroke-linecap="round" />
</g>
</g>
</g>
</svg>